Bench12-Cond-Black-IN.ufo
<glyph name="exclam" format="1">
  <advance width="424"/>
  <unicode hex="0021"/>
  <outline>
    <contour>
      <point x="184" y="530" type="curve" smooth="yes"/>
      <point x="242" y="530" type="line" smooth="yes"/>
      <point x="258" y="530"/>
      <point x="266" y="565"/>
      <point x="268" y="607" type="curve" smooth="yes"/>
      <point x="315" y="1459" type="line" smooth="yes"/>
      <point x="318" y="1502"/>
      <point x="305" y="1536"/>
      <point x="290" y="1536" type="curve" smooth="yes"/>
      <point x="136" y="1536" type="line" smooth="yes"/>
      <point x="121" y="1536"/>
      <point x="108" y="1502"/>
      <point x="110" y="1459" type="curve" smooth="yes"/>
      <point x="157" y="607" type="line" smooth="yes"/>
      <point x="159" y="565"/>
      <point x="169" y="530"/>
    </contour>
    <contour>
      <point x="213" y="0" type="curve" smooth="yes"/>
      <point x="292" y="0"/>
      <point x="330" y="97"/>
      <point x="330" y="193" type="curve" smooth="yes"/>
      <point x="330" y="289"/>
      <point x="291" y="385"/>
      <point x="213" y="385" type="curve" smooth="yes"/>
      <point x="136" y="385"/>
      <point x="95" y="291"/>
      <point x="95" y="193" type="curve" smooth="yes"/>
      <point x="95" y="96"/>
      <point x="135" y="0"/>
    </contour>
  </outline>
</glyph>
<glyph name="asterisk" format="1">
  <advance width="529"/>
  <unicode hex="002A"/>
  <outline>
    <contour>
      <point x="174" y="295" type="curve" smooth="yes"/>
      <point x="186" y="295"/>
      <point x="197" y="316"/>
      <point x="202" y="346" type="curve" smooth="yes"/>
      <point x="261" y="695" type="line"/>
      <point x="321" y="346" type="line" smooth="yes"/>
      <point x="326" y="316"/>
      <point x="337" y="295"/>
      <point x="349" y="295" type="curve" smooth="yes"/>
      <point x="366" y="295"/>
      <point x="382" y="339"/>
      <point x="382" y="389" type="curve" smooth="yes"/>
      <point x="382" y="467"/>
      <point x="303" y="685"/>
      <point x="285" y="741" type="curve"/>
      <point x="415" y="824" type="line" smooth="yes"/>
      <point x="429" y="833"/>
      <point x="441" y="869"/>
      <point x="441" y="911" type="curve" smooth="yes"/>
      <point x="441" y="961"/>
      <point x="427" y="1009"/>
      <point x="410" y="1009" type="curve" smooth="yes"/>
      <point x="389" y="1009"/>
      <point x="298" y="853"/>
      <point x="276" y="820" type="curve"/>
      <point x="281" y="946"/>
      <point x="293" y="1095"/>
      <point x="293" y="1221" type="curve" smooth="yes"/>
      <point x="293" y="1271"/>
      <point x="280" y="1309"/>
      <point x="262" y="1309" type="curve" smooth="yes"/>
      <point x="246" y="1309"/>
      <point x="230" y="1276"/>
      <point x="230" y="1226" type="curve" smooth="yes"/>
      <point x="230" y="1098"/>
      <point x="242" y="948"/>
      <point x="248" y="820" type="curve"/>
      <point x="226" y="853"/>
      <point x="134" y="1009"/>
      <point x="113" y="1009" type="curve" smooth="yes"/>
      <point x="95" y="1009"/>
      <point x="83" y="961"/>
      <point x="83" y="911" type="curve" smooth="yes"/>
      <point x="83" y="869"/>
      <point x="94" y="833"/>
      <point x="108" y="824" type="curve" smooth="yes"/>
      <point x="238" y="741" type="line"/>
      <point x="221" y="685"/>
      <point x="142" y="467"/>
      <point x="142" y="389" type="curve" smooth="yes"/>
      <point x="142" y="339"/>
      <point x="158" y="295"/>
    </contour>
  </outline>
</glyph>
<glyph name="comma" format="1">
  <advance width="424"/>
  <unicode hex="002C"/>
  <outline>
    <contour>
      <point x="185" y="-283" type="curve" smooth="yes"/>
      <point x="233" y="-260"/>
      <point x="337" y="-212"/>
      <point x="337" y="25" type="curve" smooth="yes"/>
      <point x="337" y="229" type="line" smooth="yes"/>
      <point x="337" y="272"/>
      <point x="325" y="280"/>
      <point x="311" y="280" type="curve" smooth="yes"/>
      <point x="107" y="280" type="line" smooth="yes"/>
      <point x="93" y="280"/>
      <point x="86" y="272"/>
      <point x="86" y="229" type="curve" smooth="yes"/>
      <point x="86" y="45" type="line" smooth="yes"/>
      <point x="86" y="7"/>
      <point x="94" y="0"/>
      <point x="107" y="0" type="curve" smooth="yes"/>
      <point x="211" y="0" type="line" smooth="yes"/>
      <point x="216" y="0"/>
      <point x="217" y="-11"/>
      <point x="217" y="-27" type="curve" smooth="yes"/>
      <point x="217" y="-51"/>
      <point x="219" y="-118"/>
      <point x="196" y="-161" type="curve" smooth="yes"/>
      <point x="181" y="-188"/>
      <point x="159" y="-177"/>
      <point x="159" y="-231" type="curve" smooth="yes"/>
      <point x="159" y="-258" type="line" smooth="yes"/>
      <point x="159" y="-294"/>
      <point x="173" y="-289"/>
    </contour>
  </outline>
</glyph>
<glyph name="period" format="1">
  <advance width="399"/>
  <unicode hex="002E"/>
  <outline>
    <contour>
      <point x="113" y="0" type="curve" smooth="yes"/>
      <point x="285" y="0" type="line" smooth="yes"/>
      <point x="300" y="0"/>
      <point x="312" y="4"/>
      <point x="312" y="47" type="curve" smooth="yes"/>
      <point x="312" y="233" type="line" smooth="yes"/>
      <point x="312" y="276"/>
      <point x="300" y="280"/>
      <point x="285" y="280" type="curve" smooth="yes"/>
      <point x="113" y="280" type="line" smooth="yes"/>
      <point x="98" y="280"/>
      <point x="86" y="276"/>
      <point x="86" y="233" type="curve" smooth="yes"/>
      <point x="86" y="47" type="line" smooth="yes"/>
      <point x="86" y="4"/>
      <point x="98" y="0"/>
    </contour>
  </outline>
</glyph>
<glyph name="slash" format="1">
  <advance width="586"/>
  <unicode hex="002F"/>
  <outline>
    <contour>
      <point x="81" y="-205" type="curve" smooth="yes"/>
      <point x="264" y="-207" type="line" smooth="yes"/>
      <point x="271" y="-207"/>
      <point x="278" y="-193"/>
      <point x="281" y="-172" type="curve" smooth="yes"/>
      <point x="516" y="1612" type="line" smooth="yes"/>
      <point x="519" y="1629"/>
      <point x="514" y="1647"/>
      <point x="507" y="1647" type="curve" smooth="yes"/>
      <point x="326" y="1647" type="line" smooth="yes"/>
      <point x="318" y="1647"/>
      <point x="311" y="1633"/>
      <point x="308" y="1612" type="curve" smooth="yes"/>
      <point x="73" y="-170" type="line" smooth="yes"/>
      <point x="71" y="-187"/>
      <point x="76" y="-205"/>
    </contour>
  </outline>
</glyph>
<glyph name="zero" format="1">
  <advance width="907"/>
  <unicode hex="0030"/>
  <outline>
    <contour>
      <point x="454" y="356" type="curve" smooth="yes"/>
      <point x="388" y="356"/>
      <point x="358" y="438"/>
      <point x="358" y="721" type="curve" smooth="yes"/>
      <point x="358" y="1004"/>
      <point x="388" y="1085"/>
      <point x="454" y="1085" type="curve" smooth="yes"/>
      <point x="521" y="1085"/>
      <point x="548" y="1004"/>
      <point x="548" y="721" type="curve" smooth="yes"/>
      <point x="548" y="438"/>
      <point x="521" y="356"/>
    </contour>
    <contour>
      <point x="454" y="-41" type="curve" smooth="yes"/>
      <point x="636" y="-41"/>
      <point x="814" y="72"/>
      <point x="814" y="721" type="curve" smooth="yes"/>
      <point x="814" y="1323"/>
      <point x="636" y="1475"/>
      <point x="454" y="1475" type="curve" smooth="yes"/>
      <point x="273" y="1475"/>
      <point x="91" y="1323"/>
      <point x="91" y="721" type="curve" smooth="yes"/>
      <point x="91" y="72"/>
      <point x="273" y="-41"/>
    </contour>
  </outline>
</glyph>
<glyph name="six" format="1">
  <advance width="913"/>
  <unicode hex="0036"/>
  <outline>
    <contour>
      <point x="484" y="1472" type="curve" smooth="yes"/>
      <point x="196" y="1472"/>
      <point x="104" y="1240"/>
      <point x="104" y="660" type="curve" smooth="yes"/>
      <point x="104" y="130"/>
      <point x="254" y="-30"/>
      <point x="464" y="-30" type="curve" smooth="yes"/>
      <point x="671" y="-30"/>
      <point x="820" y="58"/>
      <point x="820" y="449" type="curve" smooth="yes"/>
      <point x="820" y="730"/>
      <point x="719" y="936"/>
      <point x="495" y="936" type="curve" smooth="yes"/>
      <point x="449" y="936"/>
      <point x="410" y="911"/>
      <point x="367" y="892" type="curve"/>
      <point x="367" y="908" type="line" smooth="yes"/>
      <point x="367" y="1128"/>
      <point x="388" y="1242"/>
      <point x="499" y="1242" type="curve" smooth="yes"/>
      <point x="613" y="1242"/>
      <point x="724" y="1182"/>
      <point x="736" y="1175" type="curve"/>
      <point x="739" y="1173"/>
      <point x="742" y="1172"/>
      <point x="744" y="1172" type="curve" smooth="yes"/>
      <point x="753" y="1172"/>
      <point x="758" y="1185"/>
      <point x="760" y="1216" type="curve" smooth="yes"/>
      <point x="768" y="1321" type="line"/>
      <point x="768" y="1326"/>
      <point x="768" y="1330"/>
      <point x="768" y="1334" type="curve" smooth="yes"/>
      <point x="768" y="1364"/>
      <point x="763" y="1375"/>
      <point x="750" y="1385" type="curve"/>
      <point x="712" y="1418"/>
      <point x="566" y="1472"/>
    </contour>
    <contour>
      <point x="478" y="718" type="curve" smooth="yes"/>
      <point x="546" y="718"/>
      <point x="564" y="614"/>
      <point x="564" y="469" type="curve" smooth="yes"/>
      <point x="564" y="242"/>
      <point x="528" y="194"/>
      <point x="470" y="194" type="curve" smooth="yes"/>
      <point x="410" y="194"/>
      <point x="367" y="251"/>
      <point x="367" y="506" type="curve" smooth="yes"/>
      <point x="367" y="677" type="line"/>
      <point x="407" y="703"/>
      <point x="445" y="718"/>
    </contour>
  </outline>
</glyph>
<glyph name="eight" format="1">
  <advance width="840"/>
  <unicode hex="0038"/>
  <outline>
    <contour>
      <point x="422" y="-41" type="curve" smooth="yes"/>
      <point x="580" y="-41"/>
      <point x="746" y="55"/>
      <point x="746" y="446" type="curve" smooth="yes"/>
      <point x="746" y="639"/>
      <point x="716" y="735"/>
      <point x="652" y="805" type="curve"/>
      <point x="692" y="846"/>
      <point x="716" y="959"/>
      <point x="716" y="1083" type="curve" smooth="yes"/>
      <point x="716" y="1407"/>
      <point x="558" y="1475"/>
      <point x="421" y="1475" type="curve" smooth="yes"/>
      <point x="284" y="1475"/>
      <point x="123" y="1404"/>
      <point x="123" y="1073" type="curve" smooth="yes"/>
      <point x="123" y="948"/>
      <point x="153" y="856"/>
      <point x="196" y="805" type="curve"/>
      <point x="137" y="762"/>
      <point x="93" y="638"/>
      <point x="93" y="446" type="curve" smooth="yes"/>
      <point x="93" y="21"/>
      <point x="263" y="-41"/>
    </contour>
    <contour>
      <point x="422" y="217" type="curve" smooth="yes"/>
      <point x="362" y="217"/>
      <point x="305" y="299"/>
      <point x="305" y="486" type="curve" smooth="yes"/>
      <point x="305" y="570"/>
      <point x="310" y="669"/>
      <point x="320" y="708" type="curve"/>
      <point x="386" y="658"/>
      <point x="531" y="725"/>
      <point x="531" y="466" type="curve" smooth="yes"/>
      <point x="531" y="279"/>
      <point x="480" y="217"/>
    </contour>
    <contour>
      <point x="513" y="877" type="curve" smooth="yes"/>
      <point x="382" y="861"/>
      <point x="316" y="923"/>
      <point x="316" y="1093" type="curve" smooth="yes"/>
      <point x="316" y="1230"/>
      <point x="371" y="1273"/>
      <point x="421" y="1273" type="curve" smooth="yes"/>
      <point x="471" y="1273"/>
      <point x="528" y="1211"/>
      <point x="528" y="1074" type="curve" smooth="yes"/>
      <point x="528" y="1009"/>
      <point x="526" y="878"/>
    </contour>
  </outline>
</glyph>
<glyph name="nine" format="1">
  <advance width="913"/>
  <unicode hex="0039"/>
  <outline>
    <contour>
      <point x="440" y="-34" type="curve" smooth="yes"/>
      <point x="728" y="-34"/>
      <point x="820" y="198"/>
      <point x="820" y="778" type="curve" smooth="yes"/>
      <point x="820" y="1308"/>
      <point x="670" y="1468"/>
      <point x="460" y="1468" type="curve" smooth="yes"/>
      <point x="253" y="1468"/>
      <point x="104" y="1380"/>
      <point x="104" y="989" type="curve" smooth="yes"/>
      <point x="104" y="708"/>
      <point x="205" y="502"/>
      <point x="429" y="502" type="curve" smooth="yes"/>
      <point x="475" y="502"/>
      <point x="514" y="527"/>
      <point x="557" y="546" type="curve"/>
      <point x="557" y="530" type="line" smooth="yes"/>
      <point x="557" y="310"/>
      <point x="536" y="196"/>
      <point x="425" y="196" type="curve" smooth="yes"/>
      <point x="311" y="196"/>
      <point x="200" y="256"/>
      <point x="188" y="263" type="curve"/>
      <point x="185" y="265"/>
      <point x="182" y="266"/>
      <point x="180" y="266" type="curve" smooth="yes"/>
      <point x="171" y="266"/>
      <point x="166" y="253"/>
      <point x="164" y="222" type="curve" smooth="yes"/>
      <point x="156" y="117" type="line"/>
      <point x="156" y="112"/>
      <point x="156" y="108"/>
      <point x="156" y="104" type="curve" smooth="yes"/>
      <point x="156" y="74"/>
      <point x="161" y="63"/>
      <point x="174" y="53" type="curve"/>
      <point x="212" y="20"/>
      <point x="358" y="-34"/>
    </contour>
    <contour>
      <point x="446" y="720" type="curve" smooth="yes"/>
      <point x="378" y="720"/>
      <point x="360" y="824"/>
      <point x="360" y="969" type="curve" smooth="yes"/>
      <point x="360" y="1196"/>
      <point x="396" y="1244"/>
      <point x="454" y="1244" type="curve" smooth="yes"/>
      <point x="514" y="1244"/>
      <point x="557" y="1187"/>
      <point x="557" y="932" type="curve" smooth="yes"/>
      <point x="557" y="761" type="line"/>
      <point x="517" y="735"/>
      <point x="479" y="720"/>
    </contour>
  </outline>
</glyph>
<glyph name="equal" format="1">
  <advance width="450"/>
  <unicode hex="003D"/>
  <outline>
    <contour>
      <point x="121" y="213" type="curve" smooth="yes"/>
      <point x="330" y="213" type="line" smooth="yes"/>
      <point x="344" y="213"/>
      <point x="356" y="247"/>
      <point x="356" y="290" type="curve" smooth="yes"/>
      <point x="356" y="391" type="line" smooth="yes"/>
      <point x="356" y="434"/>
      <point x="344" y="468"/>
      <point x="330" y="468" type="curve" smooth="yes"/>
      <point x="121" y="468" type="line" smooth="yes"/>
      <point x="106" y="468"/>
      <point x="94" y="434"/>
      <point x="94" y="391" type="curve" smooth="yes"/>
      <point x="94" y="290" type="line" smooth="yes"/>
      <point x="94" y="247"/>
      <point x="106" y="213"/>
    </contour>
    <contour>
      <point x="121" y="622" type="curve" smooth="yes"/>
      <point x="330" y="622" type="line" smooth="yes"/>
      <point x="344" y="622"/>
      <point x="356" y="656"/>
      <point x="356" y="699" type="curve" smooth="yes"/>
      <point x="356" y="800" type="line" smooth="yes"/>
      <point x="356" y="843"/>
      <point x="344" y="877"/>
      <point x="330" y="877" type="curve" smooth="yes"/>
      <point x="121" y="877" type="line" smooth="yes"/>
      <point x="106" y="877"/>
      <point x="94" y="843"/>
      <point x="94" y="800" type="curve" smooth="yes"/>
      <point x="94" y="699" type="line" smooth="yes"/>
      <point x="94" y="656"/>
      <point x="106" y="622"/>
    </contour>
  </outline>
</glyph>
<glyph name="A" format="1">
  <advance width="943"/>
  <unicode hex="0041"/>
  <outline>
    <contour>
      <point x="96" y="0" type="curve" smooth="yes"/>
      <point x="269" y="0" type="line" smooth="yes"/>
      <point x="284" y="0"/>
      <point x="297" y="-6"/>
      <point x="302" y="36" type="curve" smooth="yes"/>
      <point x="335" y="263" type="line"/>
      <point x="339" y="283"/>
      <point x="339" y="296"/>
      <point x="350" y="296" type="curve" smooth="yes"/>
      <point x="532" y="295" type="line" smooth="yes"/>
      <point x="543" y="295"/>
      <point x="543" y="283"/>
      <point x="547" y="263" type="curve" smooth="yes"/>
      <point x="583" y="35" type="line" smooth="yes"/>
      <point x="590" y="-6"/>
      <point x="602" y="0"/>
      <point x="618" y="0" type="curve" smooth="yes"/>
      <point x="846" y="0" type="line" smooth="yes"/>
      <point x="856" y="0"/>
      <point x="863" y="2"/>
      <point x="863" y="27" type="curve" smooth="yes"/>
      <point x="863" y="34"/>
      <point x="862" y="62"/>
      <point x="861" y="69" type="curve" smooth="yes"/>
      <point x="648" y="1393" type="line" smooth="yes"/>
      <point x="641" y="1434"/>
      <point x="627" y="1438"/>
      <point x="611" y="1438" type="curve" smooth="yes"/>
      <point x="323" y="1438" type="line" smooth="yes"/>
      <point x="307" y="1438"/>
      <point x="293" y="1434"/>
      <point x="286" y="1393" type="curve" smooth="yes"/>
      <point x="81" y="69" type="line"/>
      <point x="81" y="62"/>
      <point x="80" y="34"/>
      <point x="80" y="27" type="curve" smooth="yes"/>
      <point x="80" y="2"/>
      <point x="87" y="0"/>
    </contour>
    <contour>
      <point x="362" y="481" type="curve" smooth="yes"/>
      <point x="362" y="484"/>
      <point x="362" y="487"/>
      <point x="363" y="490" type="curve"/>
      <point x="438" y="1098" type="line" smooth="yes"/>
      <point x="439" y="1104"/>
      <point x="441" y="1107"/>
      <point x="443" y="1107" type="curve" smooth="yes"/>
      <point x="445" y="1107"/>
      <point x="446" y="1104"/>
      <point x="447" y="1097" type="curve" smooth="yes"/>
      <point x="525" y="491" type="line"/>
      <point x="526" y="488"/>
      <point x="526" y="484"/>
      <point x="526" y="481" type="curve" smooth="yes"/>
      <point x="526" y="468"/>
      <point x="523" y="456"/>
      <point x="517" y="456" type="curve" smooth="yes"/>
      <point x="370" y="456" type="line" smooth="yes"/>
      <point x="365" y="456"/>
      <point x="362" y="468"/>
    </contour>
  </outline>
</glyph>
<glyph name="B" format="1">
  <advance width="928"/>
  <unicode hex="0042"/>
  <outline>
    <contour>
      <point x="130" y="0" type="curve" smooth="yes"/>
      <point x="518" y="0" type="line" smooth="yes"/>
      <point x="690" y="0"/>
      <point x="835" y="96"/>
      <point x="835" y="424" type="curve" smooth="yes"/>
      <point x="835" y="590"/>
      <point x="807" y="695"/>
      <point x="732" y="757" type="curve" smooth="yes"/>
      <point x="727" y="761"/>
      <point x="720" y="766"/>
      <point x="720" y="772" type="curve" smooth="yes"/>
      <point x="720" y="777"/>
      <point x="727" y="783"/>
      <point x="731" y="788" type="curve"/>
      <point x="782" y="843"/>
      <point x="801" y="929"/>
      <point x="801" y="1040" type="curve" smooth="yes"/>
      <point x="801" y="1339"/>
      <point x="680" y="1438"/>
      <point x="534" y="1438" type="curve" smooth="yes"/>
      <point x="130" y="1438" type="line" smooth="yes"/>
      <point x="115" y="1438"/>
      <point x="103" y="1433"/>
      <point x="103" y="1390" type="curve" smooth="yes"/>
      <point x="103" y="48" type="line" smooth="yes"/>
      <point x="103" y="5"/>
      <point x="115" y="0"/>
    </contour>
    <contour>
      <point x="378" y="215" type="line" smooth="yes"/>
      <point x="371" y="215"/>
      <point x="365" y="217"/>
      <point x="365" y="237" type="curve" smooth="yes"/>
      <point x="365" y="629" type="line" smooth="yes"/>
      <point x="365" y="649"/>
      <point x="371" y="656"/>
      <point x="378" y="656" type="curve" smooth="yes"/>
      <point x="471" y="656" type="line" smooth="yes"/>
      <point x="543" y="656"/>
      <point x="573" y="551"/>
      <point x="573" y="430" type="curve" smooth="yes"/>
      <point x="573" y="295"/>
      <point x="517" y="215"/>
      <point x="454" y="215" type="curve" smooth="yes"/>
    </contour>
    <contour>
      <point x="378" y="853" type="line" smooth="yes"/>
      <point x="371" y="853"/>
      <point x="365" y="856"/>
      <point x="365" y="876" type="curve" smooth="yes"/>
      <point x="365" y="1202" type="line" smooth="yes"/>
      <point x="365" y="1222"/>
      <point x="371" y="1225"/>
      <point x="378" y="1225" type="curve" smooth="yes"/>
      <point x="450" y="1225" type="line" smooth="yes"/>
      <point x="506" y="1225"/>
      <point x="556" y="1164"/>
      <point x="556" y="1029" type="curve" smooth="yes"/>
      <point x="556" y="929"/>
      <point x="532" y="853"/>
      <point x="477" y="853" type="curve" smooth="yes"/>
    </contour>
  </outline>
</glyph>
<glyph name="C" format="1">
  <advance width="795"/>
  <unicode hex="0043"/>
  <outline>
    <contour>
      <point x="524" y="-20" type="curve" smooth="yes"/>
      <point x="588" y="-20"/>
      <point x="658" y="-10"/>
      <point x="695" y="5" type="curve"/>
      <point x="695" y="222" type="line"/>
      <point x="659" y="210"/>
      <point x="630" y="196"/>
      <point x="572" y="196" type="curve" smooth="yes"/>
      <point x="431" y="196"/>
      <point x="353" y="253"/>
      <point x="353" y="719" type="curve" smooth="yes"/>
      <point x="353" y="1180"/>
      <point x="446" y="1245"/>
      <point x="582" y="1245" type="curve" smooth="yes"/>
      <point x="642" y="1245"/>
      <point x="694" y="1222"/>
      <point x="698" y="1222" type="curve" smooth="yes"/>
      <point x="702" y="1222"/>
      <point x="705" y="1223"/>
      <point x="705" y="1238" type="curve" smooth="yes"/>
      <point x="705" y="1408" type="line" smooth="yes"/>
      <point x="705" y="1425"/>
      <point x="698" y="1424"/>
      <point x="695" y="1429" type="curve"/>
      <point x="658" y="1447"/>
      <point x="568" y="1457"/>
      <point x="516" y="1457" type="curve" smooth="yes"/>
      <point x="304" y="1457"/>
      <point x="91" y="1381"/>
      <point x="91" y="719" type="curve" smooth="yes"/>
      <point x="91" y="56"/>
      <point x="297" y="-20"/>
    </contour>
  </outline>
</glyph>
<glyph name="F" format="1">
  <advance width="836"/>
  <unicode hex="0046"/>
  <outline>
    <contour>
      <point x="130" y="0" type="curve" smooth="yes"/>
      <point x="339" y="0" type="line" smooth="yes"/>
      <point x="353" y="0"/>
      <point x="365" y="4"/>
      <point x="365" y="47" type="curve" smooth="yes"/>
      <point x="365" y="543" type="line" smooth="yes"/>
      <point x="365" y="563"/>
      <point x="371" y="573"/>
      <point x="378" y="573" type="curve" smooth="yes"/>
      <point x="620" y="573" type="line" smooth="yes"/>
      <point x="635" y="573"/>
      <point x="646" y="577"/>
      <point x="646" y="620" type="curve" smooth="yes"/>
      <point x="646" y="754" type="line" smooth="yes"/>
      <point x="646" y="797"/>
      <point x="635" y="801"/>
      <point x="620" y="801" type="curve" smooth="yes"/>
      <point x="378" y="801" type="line" smooth="yes"/>
      <point x="371" y="801"/>
      <point x="365" y="808"/>
      <point x="365" y="828" type="curve" smooth="yes"/>
      <point x="365" y="1198" type="line" smooth="yes"/>
      <point x="365" y="1218"/>
      <point x="371" y="1225"/>
      <point x="378" y="1225" type="curve" smooth="yes"/>
      <point x="737" y="1225" type="line" smooth="yes"/>
      <point x="752" y="1225"/>
      <point x="764" y="1229"/>
      <point x="764" y="1272" type="curve" smooth="yes"/>
      <point x="764" y="1391" type="line" smooth="yes"/>
      <point x="764" y="1434"/>
      <point x="752" y="1438"/>
      <point x="737" y="1438" type="curve" smooth="yes"/>
      <point x="130" y="1438" type="line" smooth="yes"/>
      <point x="115" y="1438"/>
      <point x="103" y="1433"/>
      <point x="103" y="1390" type="curve" smooth="yes"/>
      <point x="103" y="47" type="line" smooth="yes"/>
      <point x="103" y="4"/>
      <point x="115" y="0"/>
    </contour>
  </outline>
</glyph>
<glyph name="G" format="1">
  <advance width="973"/>
  <unicode hex="0047"/>
  <outline>
    <contour>
      <point x="799" y="-10"/>
      <point x="825" y="-21"/>
      <point x="841" y="-21" type="curve" smooth="yes"/>
      <point x="855" y="-21"/>
      <point x="877" y="13"/>
      <point x="877" y="56" type="curve" smooth="yes"/>
      <point x="877" y="703" type="line" smooth="yes"/>
      <point x="877" y="746"/>
      <point x="865" y="780"/>
      <point x="851" y="780" type="curve" smooth="yes"/>
      <point x="563" y="780" type="line" smooth="yes"/>
      <point x="548" y="780"/>
      <point x="536" y="772"/>
      <point x="536" y="729" type="curve" smooth="yes"/>
      <point x="536" y="609" type="line" smooth="yes"/>
      <point x="536" y="566"/>
      <point x="548" y="560"/>
      <point x="563" y="560" type="curve" smooth="yes"/>
      <point x="645" y="560" type="line" smooth="yes"/>
      <point x="650" y="560"/>
      <point x="654" y="547"/>
      <point x="654" y="534" type="curve" smooth="yes"/>
      <point x="654" y="309"/>
      <point x="623" y="205"/>
      <point x="536" y="199" type="curve" smooth="yes"/>
      <point x="420" y="191"/>
      <point x="353" y="293"/>
      <point x="353" y="719" type="curve" smooth="yes"/>
      <point x="353" y="1161"/>
      <point x="432" y="1243"/>
      <point x="587" y="1246" type="curve" smooth="yes"/>
      <point x="647" y="1247"/>
      <point x="754" y="1221"/>
      <point x="758" y="1221" type="curve" smooth="yes"/>
      <point x="762" y="1221"/>
      <point x="765" y="1222"/>
      <point x="765" y="1237" type="curve" smooth="yes"/>
      <point x="765" y="1405" type="line" smooth="yes"/>
      <point x="765" y="1422"/>
      <point x="758" y="1421"/>
      <point x="755" y="1426" type="curve"/>
      <point x="718" y="1444"/>
      <point x="631" y="1457"/>
      <point x="579" y="1457" type="curve" smooth="yes"/>
      <point x="324" y="1457"/>
      <point x="91" y="1391"/>
      <point x="91" y="719" type="curve" smooth="yes"/>
      <point x="91" y="66"/>
      <point x="308" y="-36"/>
      <point x="506" y="-20" type="curve" smooth="yes"/>
      <point x="624" y="-10"/>
      <point x="721" y="61"/>
      <point x="748" y="276" type="curve"/>
      <point x="750" y="283"/>
      <point x="752" y="286"/>
      <point x="754" y="286" type="curve" smooth="yes"/>
      <point x="756" y="286"/>
      <point x="759" y="282"/>
      <point x="759" y="274" type="curve"/>
      <point x="790" y="49" type="line" smooth="yes"/>
    </contour>
  </outline>
</glyph>
<glyph name="K" format="1">
  <advance width="864"/>
  <unicode hex="004B"/>
  <outline>
    <contour>
      <point x="339" y="0" type="line" smooth="yes"/>
      <point x="353" y="0"/>
      <point x="365" y="4"/>
      <point x="365" y="47" type="curve" smooth="yes"/>
      <point x="365" y="655" type="line"/>
      <point x="500" y="47" type="line" smooth="yes"/>
      <point x="509" y="9"/>
      <point x="525" y="0"/>
      <point x="542" y="0" type="curve" smooth="yes"/>
      <point x="771" y="0" type="line" smooth="yes"/>
      <point x="782" y="0"/>
      <point x="793" y="20"/>
      <point x="786" y="46" type="curve" smooth="yes"/>
      <point x="620" y="694" type="line" smooth="yes"/>
      <point x="616" y="708"/>
      <point x="615" y="720"/>
      <point x="615" y="731" type="curve" smooth="yes"/>
      <point x="615" y="756"/>
      <point x="622" y="772"/>
      <point x="625" y="782" type="curve" smooth="yes"/>
      <point x="775" y="1390" type="line" smooth="yes"/>
      <point x="781" y="1414"/>
      <point x="779" y="1438"/>
      <point x="749" y="1438" type="curve" smooth="yes"/>
      <point x="557" y="1438" type="line" smooth="yes"/>
      <point x="541" y="1438"/>
      <point x="522" y="1427"/>
      <point x="514" y="1393" type="curve" smooth="yes"/>
      <point x="365" y="740" type="line"/>
      <point x="365" y="1391" type="line" smooth="yes"/>
      <point x="365" y="1434"/>
      <point x="353" y="1438"/>
      <point x="339" y="1438" type="curve" smooth="yes"/>
      <point x="130" y="1438" type="line" smooth="yes"/>
      <point x="115" y="1438"/>
      <point x="103" y="1434"/>
      <point x="103" y="1391" type="curve" smooth="yes"/>
      <point x="103" y="47" type="line" smooth="yes"/>
      <point x="103" y="4"/>
      <point x="115" y="0"/>
      <point x="130" y="0" type="curve" smooth="yes"/>
    </contour>
  </outline>
</glyph>
<glyph name="N" format="1">
  <advance width="997"/>
  <unicode hex="004E"/>
  <outline>
    <contour>
      <point x="662" y="-1" type="curve" smooth="yes"/>
      <point x="868" y="-1" type="line" smooth="yes"/>
      <point x="882" y="-1"/>
      <point x="894" y="2"/>
      <point x="894" y="45" type="curve" smooth="yes"/>
      <point x="894" y="1381" type="line" smooth="yes"/>
      <point x="894" y="1424"/>
      <point x="882" y="1438"/>
      <point x="868" y="1438" type="curve" smooth="yes"/>
      <point x="698" y="1438" type="line" smooth="yes"/>
      <point x="684" y="1438"/>
      <point x="671" y="1424"/>
      <point x="671" y="1381" type="curve" smooth="yes"/>
      <point x="671" y="841" type="line" smooth="yes"/>
      <point x="671" y="826"/>
      <point x="665" y="819"/>
      <point x="662" y="828" type="curve" smooth="yes"/>
      <point x="450" y="1388" type="line" smooth="yes"/>
      <point x="439" y="1419"/>
      <point x="421" y="1439"/>
      <point x="405" y="1439" type="curve" smooth="yes"/>
      <point x="130" y="1439" type="line" smooth="yes"/>
      <point x="115" y="1439"/>
      <point x="103" y="1425"/>
      <point x="103" y="1382" type="curve" smooth="yes"/>
      <point x="103" y="46" type="line" smooth="yes"/>
      <point x="103" y="3"/>
      <point x="115" y="0"/>
      <point x="130" y="0" type="curve" smooth="yes"/>
      <point x="304" y="0" type="line" smooth="yes"/>
      <point x="319" y="0"/>
      <point x="331" y="3"/>
      <point x="331" y="46" type="curve" smooth="yes"/>
      <point x="331" y="798" type="line" smooth="yes"/>
      <point x="331" y="813"/>
      <point x="336" y="821"/>
      <point x="340" y="811" type="curve" smooth="yes"/>
      <point x="617" y="39" type="line" smooth="yes"/>
      <point x="628" y="8"/>
      <point x="647" y="-1"/>
    </contour>
  </outline>
</glyph>
<glyph name="O" format="1">
  <advance width="981"/>
  <unicode hex="004F"/>
  <outline>
    <contour>
      <point x="489" y="195" type="curve" smooth="yes"/>
      <point x="383" y="195"/>
      <point x="355" y="298"/>
      <point x="355" y="721" type="curve" smooth="yes"/>
      <point x="355" y="1144"/>
      <point x="381" y="1245"/>
      <point x="491" y="1245" type="curve" smooth="yes"/>
      <point x="602" y="1245"/>
      <point x="625" y="1144"/>
      <point x="625" y="721" type="curve" smooth="yes"/>
      <point x="625" y="298"/>
      <point x="596" y="195"/>
    </contour>
    <contour>
      <point x="490" y="-34" type="curve" smooth="yes"/>
      <point x="762" y="-34"/>
      <point x="887" y="92"/>
      <point x="887" y="721" type="curve" smooth="yes"/>
      <point x="887" y="1343"/>
      <point x="752" y="1468"/>
      <point x="490" y="1468" type="curve" smooth="yes"/>
      <point x="229" y="1468"/>
      <point x="93" y="1343"/>
      <point x="93" y="721" type="curve" smooth="yes"/>
      <point x="93" y="92"/>
      <point x="219" y="-34"/>
    </contour>
  </outline>
</glyph>
<glyph name="W" format="1">
  <advance width="1210"/>
  <unicode hex="0057"/>
  <outline>
    <contour>
      <point x="307" y="0" type="curve" smooth="yes"/>
      <point x="495" y="0"/>
      <point x="469" y="0"/>
      <point x="469" y="0" type="curve"/>
      <point x="483" y="3"/>
      <point x="498" y="31"/>
      <point x="503" y="70" type="curve" smooth="yes"/>
      <point x="597" y="780" type="line"/>
      <point x="684" y="71" type="line" smooth="yes"/>
      <point x="689" y="29"/>
      <point x="704" y="0"/>
      <point x="719" y="0" type="curve" smooth="yes"/>
      <point x="902" y="0" type="line" smooth="yes"/>
      <point x="918" y="0"/>
      <point x="932" y="28"/>
      <point x="938" y="70" type="curve" smooth="yes"/>
      <point x="1127" y="1368" type="line" smooth="yes"/>
      <point x="1133" y="1401"/>
      <point x="1124" y="1438"/>
      <point x="1112" y="1438" type="curve" smooth="yes"/>
      <point x="947" y="1438" type="line" smooth="yes"/>
      <point x="931" y="1438"/>
      <point x="917" y="1410"/>
      <point x="911" y="1368" type="curve" smooth="yes"/>
      <point x="818" y="668" type="line"/>
      <point x="730" y="1367" type="line" smooth="yes"/>
      <point x="724" y="1407"/>
      <point x="711" y="1435"/>
      <point x="696" y="1438" type="curve"/>
      <point x="545" y="1438" type="line" smooth="yes"/>
      <point x="529" y="1438"/>
      <point x="514" y="1410"/>
      <point x="508" y="1368" type="curve" smooth="yes"/>
      <point x="414" y="680" type="line"/>
      <point x="333" y="1366" type="line" smooth="yes"/>
      <point x="328" y="1409"/>
      <point x="314" y="1438"/>
      <point x="298" y="1438" type="curve" smooth="yes"/>
      <point x="98" y="1438" type="line" smooth="yes"/>
      <point x="84" y="1438"/>
      <point x="76" y="1401"/>
      <point x="81" y="1368" type="curve" smooth="yes"/>
      <point x="270" y="70" type="line" smooth="yes"/>
      <point x="276" y="28"/>
      <point x="292" y="0"/>
    </contour>
  </outline>
</glyph>
<glyph name="Y" format="1">
  <advance width="881"/>
  <unicode hex="0059"/>
  <outline>
    <contour>
      <point x="337" y="0" type="curve" smooth="yes"/>
      <point x="546" y="0" type="line" smooth="yes"/>
      <point x="560" y="0"/>
      <point x="573" y="7"/>
      <point x="573" y="50" type="curve" smooth="yes"/>
      <point x="573" y="433" type="line"/>
      <point x="809" y="1376" type="line"/>
      <point x="810" y="1383"/>
      <point x="812" y="1391"/>
      <point x="812" y="1399" type="curve" smooth="yes"/>
      <point x="812" y="1419"/>
      <point x="806" y="1438"/>
      <point x="798" y="1438" type="curve" smooth="yes"/>
      <point x="617" y="1438" type="line" smooth="yes"/>
      <point x="602" y="1438"/>
      <point x="585" y="1413"/>
      <point x="576" y="1375" type="curve" smooth="yes"/>
      <point x="460" y="890" type="line"/>
      <point x="341" y="1376" type="line" smooth="yes"/>
      <point x="331" y="1414"/>
      <point x="315" y="1438"/>
      <point x="298" y="1438" type="curve" smooth="yes"/>
      <point x="80" y="1438" type="line" smooth="yes"/>
      <point x="72" y="1438"/>
      <point x="67" y="1419"/>
      <point x="67" y="1400" type="curve" smooth="yes"/>
      <point x="67" y="1392"/>
      <point x="68" y="1384"/>
      <point x="70" y="1377" type="curve" smooth="yes"/>
      <point x="311" y="430" type="line"/>
      <point x="311" y="50" type="line" smooth="yes"/>
      <point x="311" y="7"/>
      <point x="322" y="0"/>
    </contour>
  </outline>
</glyph>
<glyph name="bracketleft" format="1">
  <advance width="630"/>
  <unicode hex="005B"/>
  <outline>
    <contour>
      <point x="123" y="-162" type="curve" smooth="yes"/>
      <point x="497" y="-162" type="line" smooth="yes"/>
      <point x="513" y="-162"/>
      <point x="525" y="-148"/>
      <point x="525" y="-105" type="curve" smooth="yes"/>
      <point x="525" y="35" type="line" smooth="yes"/>
      <point x="525" y="78"/>
      <point x="513" y="94"/>
      <point x="497" y="94" type="curve" smooth="yes"/>
      <point x="371" y="94" type="line" smooth="yes"/>
      <point x="364" y="94"/>
      <point x="358" y="109"/>
      <point x="358" y="129" type="curve" smooth="yes"/>
      <point x="358" y="1145" type="line" smooth="yes"/>
      <point x="358" y="1165"/>
      <point x="364" y="1182"/>
      <point x="371" y="1182" type="curve" smooth="yes"/>
      <point x="498" y="1182" type="line" smooth="yes"/>
      <point x="513" y="1182"/>
      <point x="525" y="1186"/>
      <point x="525" y="1229" type="curve" smooth="yes"/>
      <point x="525" y="1391" type="line" smooth="yes"/>
      <point x="525" y="1434"/>
      <point x="513" y="1438"/>
      <point x="497" y="1438" type="curve" smooth="yes"/>
      <point x="123" y="1438" type="line" smooth="yes"/>
      <point x="107" y="1438"/>
      <point x="95" y="1434"/>
      <point x="96" y="1391" type="curve" smooth="yes"/>
      <point x="96" y="-105" type="line" smooth="yes"/>
      <point x="95" y="-148"/>
      <point x="108" y="-162"/>
    </contour>
  </outline>
</glyph>
<glyph name="bracketright" format="1">
  <advance width="630"/>
  <unicode hex="005D"/>
  <outline>
    <contour>
      <point x="497" y="1438" type="curve" smooth="yes"/>
      <point x="123" y="1438" type="line" smooth="yes"/>
      <point x="107" y="1438"/>
      <point x="95" y="1424"/>
      <point x="95" y="1381" type="curve" smooth="yes"/>
      <point x="95" y="1241" type="line" smooth="yes"/>
      <point x="95" y="1198"/>
      <point x="107" y="1182"/>
      <point x="123" y="1182" type="curve" smooth="yes"/>
      <point x="249" y="1182" type="line" smooth="yes"/>
      <point x="256" y="1182"/>
      <point x="262" y="1167"/>
      <point x="262" y="1147" type="curve" smooth="yes"/>
      <point x="262" y="131" type="line" smooth="yes"/>
      <point x="262" y="111"/>
      <point x="256" y="94"/>
      <point x="249" y="94" type="curve" smooth="yes"/>
      <point x="122" y="94" type="line" smooth="yes"/>
      <point x="107" y="94"/>
      <point x="95" y="90"/>
      <point x="95" y="47" type="curve" smooth="yes"/>
      <point x="95" y="-115" type="line" smooth="yes"/>
      <point x="95" y="-158"/>
      <point x="107" y="-162"/>
      <point x="123" y="-162" type="curve" smooth="yes"/>
      <point x="497" y="-162" type="line" smooth="yes"/>
      <point x="513" y="-162"/>
      <point x="525" y="-158"/>
      <point x="524" y="-115" type="curve" smooth="yes"/>
      <point x="524" y="1381" type="line" smooth="yes"/>
      <point x="525" y="1424"/>
      <point x="512" y="1438"/>
    </contour>
  </outline>
</glyph>
<glyph name="a" format="1">
  <advance width="784"/>
  <unicode hex="0061"/>
  <outline>
    <contour>
      <point x="299" y="-31" type="curve" smooth="yes"/>
      <point x="424" y="-31"/>
      <point x="506" y="59"/>
      <point x="545" y="210" type="curve"/>
      <point x="546" y="214"/>
      <point x="548" y="215"/>
      <point x="551" y="215" type="curve" smooth="yes"/>
      <point x="553" y="215"/>
      <point x="556" y="212"/>
      <point x="557" y="207" type="curve" smooth="yes"/>
      <point x="560" y="183"/>
      <point x="576" y="89"/>
      <point x="585" y="46" type="curve" smooth="yes"/>
      <point x="592" y="11"/>
      <point x="607" y="0"/>
      <point x="620" y="0" type="curve" smooth="yes"/>
      <point x="666" y="0" type="line" smooth="yes"/>
      <point x="679" y="0"/>
      <point x="688" y="18"/>
      <point x="688" y="53" type="curve" smooth="yes"/>
      <point x="688" y="598" type="line" smooth="yes"/>
      <point x="688" y="947"/>
      <point x="568" y="1043"/>
      <point x="408" y="1043" type="curve" smooth="yes"/>
      <point x="242" y="1043"/>
      <point x="155" y="968"/>
      <point x="123" y="836" type="curve" smooth="yes"/>
      <point x="120" y="823"/>
      <point x="120" y="816"/>
      <point x="120" y="802" type="curve" smooth="yes"/>
      <point x="120" y="785"/>
      <point x="124" y="766"/>
      <point x="130" y="765" type="curve"/>
      <point x="267" y="728" type="line" smooth="yes"/>
      <point x="271" y="727"/>
      <point x="273" y="726"/>
      <point x="275" y="726" type="curve" smooth="yes"/>
      <point x="282" y="726"/>
      <point x="289" y="730"/>
      <point x="294" y="750" type="curve" smooth="yes"/>
      <point x="312" y="824"/>
      <point x="342" y="868"/>
      <point x="390" y="868" type="curve" smooth="yes"/>
      <point x="455" y="868"/>
      <point x="480" y="807"/>
      <point x="480" y="688" type="curve" smooth="yes"/>
      <point x="480" y="682"/>
      <point x="480" y="646"/>
      <point x="480" y="639" type="curve" smooth="yes"/>
      <point x="480" y="594"/>
      <point x="93" y="646"/>
      <point x="93" y="238" type="curve" smooth="yes"/>
      <point x="93" y="62"/>
      <point x="177" y="-31"/>
    </contour>
    <contour>
      <point x="341" y="144" type="curve" smooth="yes"/>
      <point x="297" y="144"/>
      <point x="284" y="189"/>
      <point x="284" y="250" type="curve" smooth="yes"/>
      <point x="284" y="381"/>
      <point x="367" y="441"/>
      <point x="470" y="477" type="curve"/>
      <point x="472" y="478"/>
      <point x="473" y="478"/>
      <point x="474" y="478" type="curve" smooth="yes"/>
      <point x="484" y="478"/>
      <point x="485" y="457"/>
      <point x="485" y="443" type="curve" smooth="yes"/>
      <point x="485" y="328"/>
      <point x="414" y="144"/>
    </contour>
  </outline>
</glyph>
<glyph name="b" format="1">
  <advance width="810"/>
  <unicode hex="0062"/>
  <outline>
    <contour>
      <point x="464" y="-31" type="curve" smooth="yes"/>
      <point x="594" y="-31"/>
      <point x="722" y="133"/>
      <point x="722" y="498" type="curve" smooth="yes"/>
      <point x="722" y="885"/>
      <point x="596" y="1043"/>
      <point x="479" y="1043" type="curve" smooth="yes"/>
      <point x="418" y="1043"/>
      <point x="364" y="1012"/>
      <point x="327" y="930" type="curve" smooth="yes"/>
      <point x="325" y="926"/>
      <point x="321" y="922"/>
      <point x="317" y="922" type="curve" smooth="yes"/>
      <point x="314" y="922"/>
      <point x="310" y="927"/>
      <point x="310" y="941" type="curve" smooth="yes"/>
      <point x="310" y="1346" type="line" smooth="yes"/>
      <point x="310" y="1389"/>
      <point x="298" y="1423"/>
      <point x="284" y="1423" type="curve" smooth="yes"/>
      <point x="130" y="1423" type="line" smooth="yes"/>
      <point x="115" y="1423"/>
      <point x="103" y="1389"/>
      <point x="103" y="1346" type="curve" smooth="yes"/>
      <point x="103" y="67" type="line" smooth="yes"/>
      <point x="103" y="24"/>
      <point x="110" y="0"/>
      <point x="124" y="0" type="curve" smooth="yes"/>
      <point x="165" y="0" type="line" smooth="yes"/>
      <point x="179" y="0"/>
      <point x="186" y="25"/>
      <point x="194" y="63" type="curve" smooth="yes"/>
      <point x="212" y="137"/>
      <point x="221" y="155"/>
      <point x="225" y="178" type="curve"/>
      <point x="226" y="183"/>
      <point x="230" y="185"/>
      <point x="233" y="185" type="curve" smooth="yes"/>
      <point x="235" y="185"/>
      <point x="237" y="184"/>
      <point x="238" y="181" type="curve" smooth="yes"/>
      <point x="285" y="19"/>
      <point x="376" y="-31"/>
    </contour>
    <contour>
      <point x="418" y="144" type="curve" smooth="yes"/>
      <point x="351" y="144"/>
      <point x="310" y="315"/>
      <point x="310" y="514" type="curve" smooth="yes"/>
      <point x="310" y="709"/>
      <point x="344" y="868"/>
      <point x="411" y="868" type="curve" smooth="yes"/>
      <point x="475" y="868"/>
      <point x="506" y="700"/>
      <point x="506" y="514" type="curve" smooth="yes"/>
      <point x="506" y="287"/>
      <point x="482" y="144"/>
    </contour>
  </outline>
</glyph>
<glyph name="c" format="1">
  <advance width="724"/>
  <unicode hex="0063"/>
  <outline>
    <contour>
      <point x="441" y="-42" type="curve" smooth="yes"/>
      <point x="487" y="-42"/>
      <point x="532" y="-33"/>
      <point x="561" y="-26" type="curve"/>
      <point x="569.513" y="-23.9571"/>
      <point x="576" y="-13.5376"/>
      <point x="576" y="-1" type="curve"/>
      <point x="576" y="131" type="line"/>
      <point x="576" y="144.404"/>
      <point x="569.54" y="155.572"/>
      <point x="561" y="158" type="curve"/>
      <point x="540" y="152"/>
      <point x="505" y="144"/>
      <point x="471" y="144" type="curve" smooth="yes"/>
      <point x="382" y="144"/>
      <point x="321" y="177"/>
      <point x="321" y="510" type="curve" smooth="yes"/>
      <point x="321" y="809"/>
      <point x="391" y="868"/>
      <point x="473" y="868" type="curve" smooth="yes"/>
      <point x="510" y="868"/>
      <point x="539" y="858"/>
      <point x="561" y="850" type="curve"/>
      <point x="570" y="847.167"/>
      <point x="577.333" y="854.5"/>
      <point x="576" y="869" type="curve"/>
      <point x="576" y="1011" type="line"/>
      <point x="576" y="1018.83"/>
      <point x="569.741" y="1025.5"/>
      <point x="561" y="1028" type="curve" smooth="yes"/>
      <point x="526" y="1038"/>
      <point x="468.745" y="1053"/>
      <point x="414" y="1053" type="curve" smooth="yes"/>
      <point x="250" y="1053"/>
      <point x="96" y="920"/>
      <point x="96" y="510" type="curve" smooth="yes"/>
      <point x="96" y="48"/>
      <point x="267" y="-42"/>
    </contour>
  </outline>
</glyph>
<glyph name="d" format="1">
  <advance width="847"/>
  <unicode hex="0064"/>
  <outline>
    <contour>
      <point x="362" y="-31" type="curve" smooth="yes"/>
      <point x="451" y="-31"/>
      <point x="550" y="11"/>
      <point x="587" y="200" type="curve"/>
      <point x="590" y="207"/>
      <point x="592" y="210"/>
      <point x="595" y="210" type="curve" smooth="yes"/>
      <point x="598" y="210"/>
      <point x="601" y="206"/>
      <point x="602" y="197" type="curve"/>
      <point x="633" y="64" type="line" smooth="yes"/>
      <point x="641" y="25"/>
      <point x="657" y="0"/>
      <point x="674" y="0" type="curve" smooth="yes"/>
      <point x="717" y="0" type="line" smooth="yes"/>
      <point x="732" y="0"/>
      <point x="744" y="24"/>
      <point x="744" y="67" type="curve" smooth="yes"/>
      <point x="744" y="1366" type="line" smooth="yes"/>
      <point x="744" y="1409"/>
      <point x="732" y="1423"/>
      <point x="717" y="1423" type="curve" smooth="yes"/>
      <point x="544" y="1423" type="line" smooth="yes"/>
      <point x="529" y="1423"/>
      <point x="518" y="1409"/>
      <point x="518" y="1366" type="curve" smooth="yes"/>
      <point x="518" y="941" type="line" smooth="yes"/>
      <point x="518" y="930"/>
      <point x="515" y="922"/>
      <point x="512" y="922" type="curve" smooth="yes"/>
      <point x="510" y="922"/>
      <point x="508" y="923"/>
      <point x="507" y="926" type="curve"/>
      <point x="469" y="1008"/>
      <point x="419" y="1043"/>
      <point x="349" y="1043" type="curve" smooth="yes"/>
      <point x="231" y="1043"/>
      <point x="88" y="915"/>
      <point x="88" y="498" type="curve" smooth="yes"/>
      <point x="88" y="83"/>
      <point x="234" y="-31"/>
    </contour>
    <contour>
      <point x="418" y="144" type="curve" smooth="yes"/>
      <point x="353" y="144"/>
      <point x="314" y="210"/>
      <point x="314" y="514" type="curve" smooth="yes"/>
      <point x="314" y="779"/>
      <point x="353" y="859"/>
      <point x="417" y="859" type="curve" smooth="yes"/>
      <point x="484" y="859"/>
      <point x="517" y="762"/>
      <point x="517" y="514" type="curve" smooth="yes"/>
      <point x="517" y="236"/>
      <point x="484" y="144"/>
    </contour>
  </outline>
</glyph>
<glyph name="e" format="1">
  <advance width="757"/>
  <unicode hex="0065"/>
  <outline>
    <contour>
      <point x="410.0" y="-31.0" type="curve" smooth="yes"/>
      <point x="583.0" y="-31.0"/>
      <point x="658.0" y="83.0"/>
      <point x="658.0" y="223.0" type="curve" smooth="yes"/>
      <point x="658.0" y="254.0"/>
      <point x="654" y="282"/>
      <point x="652" y="292" type="curve"/>
      <point x="650" y="302"/>
      <point x="644" y="309"/>
      <point x="628" y="309" type="curve" smooth="yes"/>
      <point x="599" y="309"/>
      <point x="552" y="309"/>
      <point x="525" y="309" type="curve" smooth="yes"/>
      <point x="512" y="309"/>
      <point x="504" y="303"/>
      <point x="502" y="285" type="curve" smooth="yes"/>
      <point x="496" y="232"/>
      <point x="487.0" y="144.0"/>
      <point x="415.0" y="144.0" type="curve" smooth="yes"/>
      <point x="359.0" y="144.0"/>
      <point x="305.0" y="199.0"/>
      <point x="305.0" y="421.0" type="curve" smooth="yes"/>
      <point x="305.0" y="437.0"/>
      <point x="308.0" y="455.0"/>
      <point x="314.0" y="455.0" type="curve" smooth="yes"/>
      <point x="652.0" y="455.0" type="line" smooth="yes"/>
      <point x="658.0" y="455.0"/>
      <point x="663.0" y="466.0"/>
      <point x="664.0" y="484.0" type="curve" smooth="yes"/>
      <point x="665.0" y="496.0"/>
      <point x="665.0" y="506.0"/>
      <point x="665.0" y="520.0" type="curve" smooth="yes"/>
      <point x="665.0" y="936.0"/>
      <point x="517.0" y="1043.0"/>
      <point x="396.0" y="1043.0" type="curve" smooth="yes"/>
      <point x="261.0" y="1043.0"/>
      <point x="88.0" y="961.0"/>
      <point x="88.0" y="504.0" type="curve" smooth="yes"/>
      <point x="88.0" y="37.0"/>
      <point x="274.0" y="-31.0"/>
    </contour>
    <contour>
      <point x="310" y="615" type="line" smooth="yes"/>
      <point x="305" y="615"/>
      <point x="305" y="643"/>
      <point x="305" y="657" type="curve" smooth="yes"/>
      <point x="307" y="788"/>
      <point x="346" y="868"/>
      <point x="394" y="868" type="curve" smooth="yes"/>
      <point x="442" y="868"/>
      <point x="475" y="784"/>
      <point x="478" y="652" type="curve" smooth="yes"/>
      <point x="478" y="639"/>
      <point x="478" y="615"/>
      <point x="474" y="615" type="curve" smooth="yes"/>
    </contour>
  </outline>
</glyph>
<glyph name="f" format="1">
  <advance width="654"/>
  <unicode hex="0066"/>
  <outline>
    <contour>
      <point x="196" y="0" type="curve" smooth="yes"/>
      <point x="361" y="0" type="line" smooth="yes"/>
      <point x="375" y="0"/>
      <point x="387" y="9"/>
      <point x="387" y="52" type="curve" smooth="yes"/>
      <point x="387" y="777" type="line" smooth="yes"/>
      <point x="387" y="797"/>
      <point x="389" y="814"/>
      <point x="395" y="814" type="curve" smooth="yes"/>
      <point x="530" y="814" type="line" smooth="yes"/>
      <point x="545" y="814"/>
      <point x="553" y="823"/>
      <point x="553" y="866" type="curve" smooth="yes"/>
      <point x="553" y="951" type="line" smooth="yes"/>
      <point x="553" y="994"/>
      <point x="545" y="1006"/>
      <point x="530" y="1006" type="curve" smooth="yes"/>
      <point x="389" y="1006" type="line"/>
      <point x="389" y="1006"/>
      <point x="387" y="1009"/>
      <point x="387" y="1012" type="curve" smooth="yes"/>
      <point x="387" y="1122" type="line" smooth="yes"/>
      <point x="387" y="1211"/>
      <point x="423" y="1251"/>
      <point x="476" y="1251" type="curve" smooth="yes"/>
      <point x="498" y="1251"/>
      <point x="545" y="1235"/>
      <point x="547" y="1235" type="curve" smooth="yes"/>
      <point x="559" y="1235"/>
      <point x="560" y="1249"/>
      <point x="560" y="1286" type="curve" smooth="yes"/>
      <point x="560" y="1375" type="line" smooth="yes"/>
      <point x="560" y="1403"/>
      <point x="553" y="1431"/>
      <point x="544" y="1438" type="curve"/>
      <point x="503" y="1458"/>
      <point x="455" y="1475"/>
      <point x="409" y="1475" type="curve" smooth="yes"/>
      <point x="291" y="1475"/>
      <point x="170" y="1406.5"/>
      <point x="170" y="1044" type="curve" smooth="yes"/>
      <point x="170" y="1022"/>
      <point x="170" y="1006"/>
      <point x="163" y="1006" type="curve" smooth="yes"/>
      <point x="111" y="1006" type="line" smooth="yes"/>
      <point x="96" y="1006"/>
      <point x="88" y="988"/>
      <point x="88" y="945" type="curve" smooth="yes"/>
      <point x="88" y="866" type="line" smooth="yes"/>
      <point x="88" y="823"/>
      <point x="96" y="814"/>
      <point x="111" y="814" type="curve" smooth="yes"/>
      <point x="163" y="814" type="line" smooth="yes"/>
      <point x="170" y="814"/>
      <point x="170" y="797"/>
      <point x="170" y="777" type="curve" smooth="yes"/>
      <point x="170" y="52" type="line" smooth="yes"/>
      <point x="170" y="9"/>
      <point x="182" y="0"/>
    </contour>
  </outline>
</glyph>
<glyph name="g" format="1">
  <advance width="708"/>
  <unicode hex="0067"/>
  <outline>
    <contour>
      <point x="578" y="-409"/>
      <point x="680" y="-308"/>
      <point x="680" y="-52" type="curve" smooth="yes"/>
      <point x="680" y="163"/>
      <point x="580" y="232"/>
      <point x="423" y="232" type="curve" smooth="yes"/>
      <point x="325" y="232" type="line" smooth="yes"/>
      <point x="259" y="232"/>
      <point x="222" y="240"/>
      <point x="222" y="304" type="curve" smooth="yes"/>
      <point x="228" y="381"/>
      <point x="236" y="399"/>
      <point x="243" y="399" type="curve" smooth="yes"/>
      <point x="244" y="399"/>
      <point x="244" y="398"/>
      <point x="245" y="398" type="curve" smooth="yes"/>
      <point x="274" y="380"/>
      <point x="299" y="369"/>
      <point x="342" y="369" type="curve" smooth="yes"/>
      <point x="517" y="369"/>
      <point x="588" y="491"/>
      <point x="588" y="704" type="curve" smooth="yes"/>
      <point x="588" y="834"/>
      <point x="559" y="895"/>
      <point x="505" y="959" type="curve" smooth="yes"/>
      <point x="497" y="969"/>
      <point x="494" y="975"/>
      <point x="494" y="981" type="curve" smooth="yes"/>
      <point x="494" y="987"/>
      <point x="497" y="994"/>
      <point x="500" y="1005" type="curve" smooth="yes"/>
      <point x="587" y="1313" type="line" smooth="yes"/>
      <point x="589" y="1321"/>
      <point x="589" y="1327"/>
      <point x="589" y="1333" type="curve" smooth="yes"/>
      <point x="589" y="1349"/>
      <point x="584" y="1358"/>
      <point x="576" y="1358" type="curve" smooth="yes"/>
      <point x="469" y="1358" type="line" smooth="yes"/>
      <point x="454" y="1358"/>
      <point x="438" y="1356"/>
      <point x="438" y="1313" type="curve" smooth="yes"/>
      <point x="438" y="1045" type="line" smooth="yes"/>
      <point x="438" y="1030"/>
      <point x="435" y="1019"/>
      <point x="429" y="1019" type="curve" smooth="yes"/>
      <point x="427" y="1019"/>
      <point x="425" y="1020"/>
      <point x="423" y="1022" type="curve" smooth="yes"/>
      <point x="405" y="1038"/>
      <point x="362" y="1042"/>
      <point x="341" y="1042" type="curve" smooth="yes"/>
      <point x="162" y="1042"/>
      <point x="96" y="907"/>
      <point x="96" y="704" type="curve" smooth="yes"/>
      <point x="96" y="575"/>
      <point x="132" y="521"/>
      <point x="150" y="496" type="curve" smooth="yes"/>
      <point x="155" y="490"/>
      <point x="158" y="483"/>
      <point x="158" y="476" type="curve" smooth="yes"/>
      <point x="158" y="470"/>
      <point x="155" y="463"/>
      <point x="149" y="455" type="curve" smooth="yes"/>
      <point x="112" y="409"/>
      <point x="67" y="305"/>
      <point x="67" y="201" type="curve" smooth="yes"/>
      <point x="67" y="103"/>
      <point x="112" y="87"/>
      <point x="167" y="53" type="curve" smooth="yes"/>
      <point x="171" y="50"/>
      <point x="171" y="43"/>
      <point x="171" y="36" type="curve" smooth="yes"/>
      <point x="171" y="31"/>
      <point x="170" y="25"/>
      <point x="168" y="21" type="curve" smooth="yes"/>
      <point x="123" y="-59"/>
      <point x="104" y="-133"/>
      <point x="104" y="-207" type="curve" smooth="yes"/>
      <point x="104" y="-358"/>
      <point x="181" y="-409"/>
      <point x="347" y="-409" type="curve" smooth="yes"/>
    </contour>
    <contour>
      <point x="275" y="-178"/>
      <point x="242" y="-135"/>
      <point x="242" y="-90" type="curve" smooth="yes"/>
      <point x="242" y="-64"/>
      <point x="276" y="30"/>
      <point x="282" y="30" type="curve" smooth="yes"/>
      <point x="435" y="30" type="line" smooth="yes"/>
      <point x="468" y="30"/>
      <point x="489" y="-29"/>
      <point x="489" y="-72" type="curve" smooth="yes"/>
      <point x="489" y="-121"/>
      <point x="485" y="-178"/>
      <point x="341" y="-178" type="curve" smooth="yes"/>
    </contour>
    <contour>
      <point x="290" y="507"/>
      <point x="253" y="562"/>
      <point x="253" y="708" type="curve" smooth="yes"/>
      <point x="253" y="855"/>
      <point x="289" y="907"/>
      <point x="341" y="907" type="curve" smooth="yes"/>
      <point x="391" y="907"/>
      <point x="429" y="842"/>
      <point x="429" y="696" type="curve" smooth="yes"/>
      <point x="429" y="569"/>
      <point x="394" y="507"/>
      <point x="341" y="507" type="curve" smooth="yes"/>
    </contour>
  </outline>
</glyph>
<glyph name="h" format="1">
  <advance width="859"/>
  <unicode hex="0068"/>
  <outline>
    <contour>
      <point x="309" y="0" type="line" smooth="yes"/>
      <point x="323" y="0"/>
      <point x="335" y="4"/>
      <point x="335" y="47" type="curve" smooth="yes"/>
      <point x="335" y="600" type="line" smooth="yes"/>
      <point x="335" y="783"/>
      <point x="377" y="867"/>
      <point x="444" y="867" type="curve" smooth="yes"/>
      <point x="508" y="867"/>
      <point x="532" y="791"/>
      <point x="532" y="600" type="curve" smooth="yes"/>
      <point x="532" y="47" type="line" smooth="yes"/>
      <point x="532" y="4"/>
      <point x="543" y="0"/>
      <point x="558" y="0" type="curve" smooth="yes"/>
      <point x="738" y="0" type="line" smooth="yes"/>
      <point x="753" y="0"/>
      <point x="764" y="4"/>
      <point x="764" y="47" type="curve" smooth="yes"/>
      <point x="764" y="587" type="line" smooth="yes"/>
      <point x="764" y="939"/>
      <point x="660" y="1043"/>
      <point x="538" y="1043" type="curve" smooth="yes"/>
      <point x="479" y="1043"/>
      <point x="394" y="1011"/>
      <point x="349" y="922" type="curve" smooth="yes"/>
      <point x="347" y="918"/>
      <point x="344" y="915"/>
      <point x="342" y="915" type="curve" smooth="yes"/>
      <point x="338" y="915"/>
      <point x="335" y="920"/>
      <point x="335" y="935" type="curve" smooth="yes"/>
      <point x="335" y="1385" type="line" smooth="yes"/>
      <point x="335" y="1428"/>
      <point x="323" y="1436"/>
      <point x="309" y="1436" type="curve" smooth="yes"/>
      <point x="130" y="1436" type="line" smooth="yes"/>
      <point x="115" y="1436"/>
      <point x="103" y="1428"/>
      <point x="103" y="1385" type="curve" smooth="yes"/>
      <point x="103" y="47" type="line" smooth="yes"/>
      <point x="103" y="4"/>
      <point x="115" y="0"/>
      <point x="130" y="0" type="curve" smooth="yes"/>
    </contour>
  </outline>
</glyph>
<glyph name="i" format="1">
  <advance width="413"/>
  <unicode hex="0069"/>
  <outline>
    <contour>
      <point x="129.0" y="0.0" type="curve" smooth="yes"/>
      <point x="284.0" y="0.0" type="line" smooth="yes"/>
      <point x="298.0" y="0.0"/>
      <point x="310.0" y="34.0"/>
      <point x="310.0" y="77.0" type="curve" smooth="yes"/>
      <point x="310.0" y="929.0" type="line" smooth="yes"/>
      <point x="310.0" y="972.0"/>
      <point x="298.0" y="1006.0"/>
      <point x="284.0" y="1006.0" type="curve" smooth="yes"/>
      <point x="129.0" y="1006.0" type="line" smooth="yes"/>
      <point x="114.0" y="1006.0"/>
      <point x="103.0" y="972.0"/>
      <point x="103.0" y="929.0" type="curve" smooth="yes"/>
      <point x="103.0" y="77.0" type="line" smooth="yes"/>
      <point x="103.0" y="34.0"/>
      <point x="114.0" y="0.0"/>
    </contour>
    <contour>
      <point x="129.0" y="1152.0" type="curve" smooth="yes"/>
      <point x="284.0" y="1152.0" type="line" smooth="yes"/>
      <point x="298.0" y="1152.0"/>
      <point x="310" y="1166"/>
      <point x="310" y="1209" type="curve" smooth="yes"/>
      <point x="310" y="1381" type="line" smooth="yes"/>
      <point x="310" y="1424"/>
      <point x="298" y="1438"/>
      <point x="284" y="1438" type="curve" smooth="yes"/>
      <point x="129" y="1438" type="line" smooth="yes"/>
      <point x="114" y="1438"/>
      <point x="103" y="1424"/>
      <point x="103" y="1381" type="curve" smooth="yes"/>
      <point x="103" y="1209" type="line" smooth="yes"/>
      <point x="103" y="1166"/>
      <point x="114.0" y="1152.0"/>
    </contour>
  </outline>
</glyph>
<glyph name="j" format="1">
  <advance width="507"/>
  <unicode hex="006A"/>
  <outline>
    <contour>
      <point x="207" y="-451" type="curve" smooth="yes"/>
      <point x="307" y="-425"/>
      <point x="404" y="-313"/>
      <point x="404" y="12" type="curve" smooth="yes"/>
      <point x="404" y="929" type="line" smooth="yes"/>
      <point x="404" y="972"/>
      <point x="393" y="1006"/>
      <point x="378" y="1006" type="curve" smooth="yes"/>
      <point x="223" y="1006" type="line" smooth="yes"/>
      <point x="208" y="1006"/>
      <point x="197" y="972"/>
      <point x="197" y="929" type="curve" smooth="yes"/>
      <point x="197" y="0" type="line" smooth="yes"/>
      <point x="197" y="-112"/>
      <point x="156" y="-135"/>
      <point x="118" y="-135" type="curve" smooth="yes"/>
      <point x="104" y="-135"/>
      <point x="90" y="-132"/>
      <point x="78" y="-128" type="curve" smooth="yes"/>
      <point x="64" y="-123"/>
      <point x="52" y="-154"/>
      <point x="52" y="-195" type="curve" smooth="yes"/>
      <point x="52" y="-246"/>
      <point x="52" y="-298"/>
      <point x="52" y="-349" type="curve" smooth="yes"/>
      <point x="52" y="-393"/>
      <point x="64" y="-431"/>
      <point x="79" y="-437" type="curve" smooth="yes"/>
      <point x="116" y="-451"/>
      <point x="162" y="-463"/>
    </contour>
    <contour>
      <point x="223" y="1152" type="curve" smooth="yes"/>
      <point x="378" y="1152" type="line" smooth="yes"/>
      <point x="392" y="1152"/>
      <point x="404" y="1166"/>
      <point x="404" y="1209" type="curve" smooth="yes"/>
      <point x="404" y="1381" type="line" smooth="yes"/>
      <point x="404" y="1424"/>
      <point x="392" y="1438"/>
      <point x="378" y="1438" type="curve" smooth="yes"/>
      <point x="223" y="1438" type="line" smooth="yes"/>
      <point x="208" y="1438"/>
      <point x="196" y="1424"/>
      <point x="196" y="1381" type="curve" smooth="yes"/>
      <point x="196" y="1209" type="line" smooth="yes"/>
      <point x="196" y="1166"/>
      <point x="208" y="1152"/>
    </contour>
  </outline>
</glyph>
<glyph name="k" format="1">
  <advance width="800"/>
  <unicode hex="006B"/>
  <outline>
    <contour>
      <point x="130" y="0" type="curve" smooth="yes"/>
      <point x="285" y="0" type="line" smooth="yes"/>
      <point x="299" y="0"/>
      <point x="311" y="14"/>
      <point x="311" y="57" type="curve" smooth="yes"/>
      <point x="311" y="277" type="line" smooth="yes"/>
      <point x="311" y="300"/>
      <point x="314" y="323"/>
      <point x="320" y="338" type="curve" smooth="yes"/>
      <point x="348" y="416" type="line"/>
      <point x="349" y="422"/>
      <point x="353" y="425"/>
      <point x="356" y="425" type="curve" smooth="yes"/>
      <point x="360" y="425"/>
      <point x="362" y="421"/>
      <point x="365" y="413" type="curve"/>
      <point x="469" y="37" type="line" smooth="yes"/>
      <point x="480" y="2"/>
      <point x="488" y="0"/>
      <point x="503" y="0" type="curve" smooth="yes"/>
      <point x="698" y="0" type="line" smooth="yes"/>
      <point x="704" y="0"/>
      <point x="709" y="16"/>
      <point x="709" y="32" type="curve" smooth="yes"/>
      <point x="709" y="40"/>
      <point x="707" y="48"/>
      <point x="705" y="54" type="curve" smooth="yes"/>
      <point x="529" y="541" type="line"/>
      <point x="526" y="547"/>
      <point x="526" y="555"/>
      <point x="526" y="563" type="curve" smooth="yes"/>
      <point x="526" y="573"/>
      <point x="527" y="583"/>
      <point x="530" y="589" type="curve" smooth="yes"/>
      <point x="688" y="961" type="line"/>
      <point x="691" y="966"/>
      <point x="692" y="973"/>
      <point x="692" y="981" type="curve" smooth="yes"/>
      <point x="692" y="994"/>
      <point x="689" y="1006"/>
      <point x="684" y="1006" type="curve" smooth="yes"/>
      <point x="489" y="1006" type="line" smooth="yes"/>
      <point x="473" y="1006"/>
      <point x="456" y="988"/>
      <point x="445" y="960" type="curve" smooth="yes"/>
      <point x="321" y="660" type="line" smooth="yes"/>
      <point x="320" y="658"/>
      <point x="318" y="656"/>
      <point x="318" y="656" type="curve"/>
      <point x="314" y="656"/>
      <point x="311" y="664"/>
      <point x="311" y="675" type="curve" smooth="yes"/>
      <point x="311" y="1418" type="line" smooth="yes"/>
      <point x="311" y="1461"/>
      <point x="299" y="1475"/>
      <point x="285" y="1475" type="curve" smooth="yes"/>
      <point x="130" y="1475" type="line" smooth="yes"/>
      <point x="115" y="1475"/>
      <point x="103" y="1461"/>
      <point x="103" y="1418" type="curve" smooth="yes"/>
      <point x="103" y="57" type="line" smooth="yes"/>
      <point x="103" y="14"/>
      <point x="115" y="0"/>
    </contour>
  </outline>
</glyph>
<glyph name="l" format="1">
  <advance width="414"/>
  <unicode hex="006C"/>
  <outline>
    <contour>
      <point x="130" y="0" type="curve" smooth="yes"/>
      <point x="285" y="0" type="line" smooth="yes"/>
      <point x="299" y="0"/>
      <point x="311" y="4"/>
      <point x="311" y="47" type="curve" smooth="yes"/>
      <point x="311" y="1418" type="line" smooth="yes"/>
      <point x="311" y="1461"/>
      <point x="299" y="1475"/>
      <point x="285" y="1475" type="curve" smooth="yes"/>
      <point x="130" y="1475" type="line" smooth="yes"/>
      <point x="115" y="1475"/>
      <point x="103" y="1461"/>
      <point x="103" y="1418" type="curve" smooth="yes"/>
      <point x="103" y="47" type="line" smooth="yes"/>
      <point x="103" y="4"/>
      <point x="115" y="0"/>
    </contour>
  </outline>
</glyph>
<glyph name="m" format="1">
  <advance width="1143"/>
  <unicode hex="006D"/>
  <outline>
    <contour>
      <point x="125" y="0" type="curve" smooth="yes"/>
      <point x="287" y="0" type="line" smooth="yes"/>
      <point x="301" y="0"/>
      <point x="313" y="34"/>
      <point x="313" y="77" type="curve" smooth="yes"/>
      <point x="313" y="230"/>
      <point x="313" y="499"/>
      <point x="313" y="578" type="curve" smooth="yes"/>
      <point x="313" y="764"/>
      <point x="322" y="868"/>
      <point x="393" y="868" type="curve" smooth="yes"/>
      <point x="442" y="868"/>
      <point x="468" y="821"/>
      <point x="468" y="603" type="curve" smooth="yes"/>
      <point x="468" y="77" type="line" smooth="yes"/>
      <point x="468" y="34"/>
      <point x="479" y="0"/>
      <point x="495" y="0" type="curve" smooth="yes"/>
      <point x="654" y="0" type="line" smooth="yes"/>
      <point x="669" y="0"/>
      <point x="680" y="34"/>
      <point x="680" y="77" type="curve" smooth="yes"/>
      <point x="680" y="256" type="line" smooth="yes"/>
      <point x="680" y="336"/>
      <point x="680" y="594"/>
      <point x="680" y="595" type="curve" smooth="yes"/>
      <point x="680" y="861"/>
      <point x="725" y="868"/>
      <point x="760" y="868" type="curve" smooth="yes"/>
      <point x="815" y="868"/>
      <point x="835" y="825"/>
      <point x="835" y="623" type="curve" smooth="yes"/>
      <point x="835" y="77" type="line" smooth="yes"/>
      <point x="835" y="34"/>
      <point x="846" y="0"/>
      <point x="861" y="0" type="curve" smooth="yes"/>
      <point x="1021" y="0" type="line" smooth="yes"/>
      <point x="1036" y="0"/>
      <point x="1047" y="34"/>
      <point x="1047" y="77" type="curve" smooth="yes"/>
      <point x="1047" y="625" type="line" smooth="yes"/>
      <point x="1047" y="988"/>
      <point x="943" y="1043"/>
      <point x="823" y="1043" type="curve" smooth="yes"/>
      <point x="760" y="1043"/>
      <point x="672" y="989"/>
      <point x="639" y="873" type="curve" smooth="yes"/>
      <point x="637" y="866"/>
      <point x="634" y="863"/>
      <point x="630" y="863" type="curve" smooth="yes"/>
      <point x="627" y="863"/>
      <point x="623" y="866"/>
      <point x="621" y="873" type="curve" smooth="yes"/>
      <point x="585" y="990"/>
      <point x="512" y="1043"/>
      <point x="444" y="1043" type="curve" smooth="yes"/>
      <point x="368" y="1043"/>
      <point x="295" y="1008"/>
      <point x="255" y="848" type="curve" smooth="yes"/>
      <point x="253" y="840"/>
      <point x="251" y="837"/>
      <point x="248" y="837" type="curve" smooth="yes"/>
      <point x="245" y="837"/>
      <point x="242" y="841"/>
      <point x="240" y="849" type="curve" smooth="yes"/>
      <point x="216" y="942" type="line" smooth="yes"/>
      <point x="207" y="981"/>
      <point x="190" y="1006"/>
      <point x="175" y="1006" type="curve" smooth="yes"/>
      <point x="125" y="1006" type="line" smooth="yes"/>
      <point x="111" y="1006"/>
      <point x="99" y="972"/>
      <point x="99" y="929" type="curve" smooth="yes"/>
      <point x="99" y="77" type="line" smooth="yes"/>
      <point x="99" y="34"/>
      <point x="111" y="0"/>
    </contour>
  </outline>
</glyph>
<glyph name="n" format="1">
  <advance width="861"/>
  <unicode hex="006E"/>
  <outline>
    <contour>
      <point x="125" y="0" type="curve" smooth="yes"/>
      <point x="305" y="0" type="line" smooth="yes"/>
      <point x="319" y="0"/>
      <point x="331" y="4"/>
      <point x="331" y="47" type="curve" smooth="yes"/>
      <point x="331" y="604" type="line" smooth="yes"/>
      <point x="331" y="767"/>
      <point x="385" y="868"/>
      <point x="453" y="868" type="curve" smooth="yes"/>
      <point x="517" y="868"/>
      <point x="533" y="765"/>
      <point x="533" y="604" type="curve" smooth="yes"/>
      <point x="533" y="47" type="line" smooth="yes"/>
      <point x="533" y="4"/>
      <point x="544" y="0"/>
      <point x="559" y="0" type="curve" smooth="yes"/>
      <point x="739" y="0" type="line" smooth="yes"/>
      <point x="754" y="0"/>
      <point x="765" y="4"/>
      <point x="765" y="47" type="curve" smooth="yes"/>
      <point x="765" y="581" type="line" smooth="yes"/>
      <point x="765" y="948"/>
      <point x="666" y="1043"/>
      <point x="512" y="1043" type="curve" smooth="yes"/>
      <point x="429" y="1043"/>
      <point x="323" y="1001"/>
      <point x="270" y="843" type="curve" smooth="yes"/>
      <point x="269" y="839"/>
      <point x="266" y="836"/>
      <point x="263" y="836" type="curve" smooth="yes"/>
      <point x="260" y="836"/>
      <point x="257" y="839"/>
      <point x="255" y="845" type="curve" smooth="yes"/>
      <point x="229" y="962" type="line" smooth="yes"/>
      <point x="220" y="1001"/>
      <point x="203" y="1006"/>
      <point x="188" y="1006" type="curve" smooth="yes"/>
      <point x="125" y="1006" type="line" smooth="yes"/>
      <point x="111" y="1006"/>
      <point x="99" y="992"/>
      <point x="99" y="949" type="curve" smooth="yes"/>
      <point x="99" y="47" type="line" smooth="yes"/>
      <point x="99" y="4"/>
      <point x="111" y="0"/>
    </contour>
  </outline>
</glyph>
<glyph name="o" format="1">
  <advance width="834"/>
  <unicode hex="006F"/>
  <outline>
    <contour>
      <point x="417" y="144" type="curve" smooth="yes"/>
      <point x="351" y="144"/>
      <point x="315" y="209"/>
      <point x="315" y="508" type="curve" smooth="yes"/>
      <point x="315" y="782"/>
      <point x="350" y="868"/>
      <point x="417" y="868" type="curve" smooth="yes"/>
      <point x="484" y="868"/>
      <point x="518" y="782"/>
      <point x="518" y="508" type="curve" smooth="yes"/>
      <point x="518" y="209"/>
      <point x="482" y="144"/>
    </contour>
    <contour>
      <point x="417" y="-31" type="curve" smooth="yes"/>
      <point x="549" y="-31"/>
      <point x="744" y="0"/>
      <point x="744" y="508" type="curve" smooth="yes"/>
      <point x="744" y="1006"/>
      <point x="536" y="1043"/>
      <point x="417" y="1043" type="curve" smooth="yes"/>
      <point x="298" y="1043"/>
      <point x="89" y="1006"/>
      <point x="89" y="508" type="curve" smooth="yes"/>
      <point x="89" y="0"/>
      <point x="285" y="-31"/>
    </contour>
  </outline>
</glyph>
<glyph name="p" format="1">
  <advance width="808"/>
  <unicode hex="0070"/>
  <outline>
    <contour>
      <point x="122" y="-299" type="curve" smooth="yes"/>
      <point x="282" y="-299" type="line" smooth="yes"/>
      <point x="296" y="-299"/>
      <point x="306" y="-269"/>
      <point x="306" y="-226" type="curve" smooth="yes"/>
      <point x="306" y="86" type="line" smooth="yes"/>
      <point x="306" y="97"/>
      <point x="310" y="101"/>
      <point x="315" y="101" type="curve" smooth="yes"/>
      <point x="318" y="101"/>
      <point x="322" y="99"/>
      <point x="323" y="95" type="curve" smooth="yes"/>
      <point x="354" y="12"/>
      <point x="415" y="-31"/>
      <point x="476" y="-31" type="curve" smooth="yes"/>
      <point x="624" y="-31"/>
      <point x="725" y="123"/>
      <point x="725" y="512" type="curve" smooth="yes"/>
      <point x="725" y="879"/>
      <point x="596" y="1043"/>
      <point x="465" y="1043" type="curve" smooth="yes"/>
      <point x="382" y="1043"/>
      <point x="286" y="988"/>
      <point x="248" y="825" type="curve" smooth="yes"/>
      <point x="246" y="818"/>
      <point x="244" y="815"/>
      <point x="241" y="815" type="curve" smooth="yes"/>
      <point x="239" y="815"/>
      <point x="236" y="818"/>
      <point x="234" y="826" type="curve" smooth="yes"/>
      <point x="204" y="934" type="line" smooth="yes"/>
      <point x="195" y="972"/>
      <point x="178" y="997"/>
      <point x="163" y="997" type="curve" smooth="yes"/>
      <point x="125" y="997" type="line" smooth="yes"/>
      <point x="111" y="997"/>
      <point x="99" y="963"/>
      <point x="99" y="920" type="curve" smooth="yes"/>
      <point x="99" y="-226" type="line" smooth="yes"/>
      <point x="99" y="-269"/>
      <point x="108" y="-299"/>
    </contour>
    <contour>
      <point x="409" y="144" type="curve" smooth="yes"/>
      <point x="340" y="144"/>
      <point x="306" y="269"/>
      <point x="306" y="496" type="curve" smooth="yes"/>
      <point x="306" y="721"/>
      <point x="339" y="868"/>
      <point x="407" y="868" type="curve" smooth="yes"/>
      <point x="471" y="868"/>
      <point x="499" y="713"/>
      <point x="499" y="496" type="curve" smooth="yes"/>
      <point x="499" y="272"/>
      <point x="472" y="144"/>
    </contour>
  </outline>
</glyph>
<glyph name="q" format="1">
  <advance width="808"/>
  <unicode hex="0071"/>
  <outline>
    <contour>
      <point x="702" y="-299" type="curve" smooth="yes"/>
      <point x="542" y="-299" type="line" smooth="yes"/>
      <point x="528" y="-299"/>
      <point x="518" y="-295"/>
      <point x="518" y="-252" type="curve" smooth="yes"/>
      <point x="518" y="86" type="line" smooth="yes"/>
      <point x="518" y="97"/>
      <point x="514" y="101"/>
      <point x="509" y="101" type="curve" smooth="yes"/>
      <point x="506" y="101"/>
      <point x="502" y="99"/>
      <point x="501" y="95" type="curve" smooth="yes"/>
      <point x="470" y="12"/>
      <point x="409" y="-31"/>
      <point x="348" y="-31" type="curve" smooth="yes"/>
      <point x="200" y="-31"/>
      <point x="99" y="123"/>
      <point x="99" y="512" type="curve" smooth="yes"/>
      <point x="99" y="879"/>
      <point x="228" y="1043"/>
      <point x="359" y="1043" type="curve" smooth="yes"/>
      <point x="442" y="1043"/>
      <point x="538" y="988"/>
      <point x="576" y="825" type="curve" smooth="yes"/>
      <point x="578" y="818"/>
      <point x="580" y="815"/>
      <point x="583" y="815" type="curve" smooth="yes"/>
      <point x="585" y="815"/>
      <point x="588" y="818"/>
      <point x="590" y="826" type="curve" smooth="yes"/>
      <point x="620" y="949" type="line" smooth="yes"/>
      <point x="629" y="987"/>
      <point x="646" y="997"/>
      <point x="661" y="997" type="curve" smooth="yes"/>
      <point x="699" y="997" type="line" smooth="yes"/>
      <point x="713" y="997"/>
      <point x="725" y="977"/>
      <point x="725" y="934" type="curve" smooth="yes"/>
      <point x="725" y="-252" type="line" smooth="yes"/>
      <point x="725" y="-295"/>
      <point x="716" y="-299"/>
    </contour>
    <contour>
      <point x="415" y="144" type="curve" smooth="yes"/>
      <point x="484" y="144"/>
      <point x="518" y="269"/>
      <point x="518" y="496" type="curve" smooth="yes"/>
      <point x="518" y="721"/>
      <point x="485" y="868"/>
      <point x="417" y="868" type="curve" smooth="yes"/>
      <point x="353" y="868"/>
      <point x="325" y="713"/>
      <point x="325" y="496" type="curve" smooth="yes"/>
      <point x="325" y="272"/>
      <point x="352" y="144"/>
    </contour>
  </outline>
</glyph>
<glyph name="r" format="1">
  <advance width="577"/>
  <unicode hex="0072"/>
  <outline>
    <contour>
      <point x="125" y="0" type="curve" smooth="yes"/>
      <point x="280" y="0" type="line" smooth="yes"/>
      <point x="294" y="0"/>
      <point x="306" y="34"/>
      <point x="306" y="77" type="curve"/>
      <point x="306" y="77"/>
      <point x="306" y="471"/>
      <point x="306" y="491" type="curve" smooth="yes"/>
      <point x="306" y="593"/>
      <point x="315" y="725"/>
      <point x="402" y="760" type="curve" smooth="yes"/>
      <point x="417" y="766"/>
      <point x="470" y="770"/>
      <point x="471" y="770" type="curve" smooth="yes"/>
      <point x="483" y="770"/>
      <point x="486" y="774"/>
      <point x="486" y="806" type="curve" smooth="yes"/>
      <point x="486" y="981" type="line" smooth="yes"/>
      <point x="486" y="1016"/>
      <point x="478" y="1043"/>
      <point x="432" y="1043" type="curve" smooth="yes"/>
      <point x="427" y="1043"/>
      <point x="420" y="1043"/>
      <point x="415" y="1043" type="curve" smooth="yes"/>
      <point x="363" y="1041"/>
      <point x="299" y="983"/>
      <point x="248" y="809" type="curve"/>
      <point x="247" y="802"/>
      <point x="245" y="799"/>
      <point x="242" y="799" type="curve" smooth="yes"/>
      <point x="239" y="799"/>
      <point x="236" y="803"/>
      <point x="234" y="811" type="curve" smooth="yes"/>
      <point x="204" y="942" type="line" smooth="yes"/>
      <point x="195" y="981"/>
      <point x="189" y="1006"/>
      <point x="173" y="1006" type="curve" smooth="yes"/>
      <point x="118" y="1006" type="line" smooth="yes"/>
      <point x="104" y="1006"/>
      <point x="99" y="972"/>
      <point x="99" y="929" type="curve" smooth="yes"/>
      <point x="99" y="77" type="line" smooth="yes"/>
      <point x="99" y="34"/>
      <point x="111" y="0"/>
    </contour>
  </outline>
</glyph>
<glyph name="s" format="1">
  <advance width="735"/>
  <unicode hex="0073"/>
  <outline>
    <contour>
      <point x="379" y="-31" type="curve" smooth="yes"/>
      <point x="529" y="-31"/>
      <point x="672" y="18"/>
      <point x="672" y="306" type="curve" smooth="yes"/>
      <point x="672" y="557"/>
      <point x="521" y="586"/>
      <point x="398" y="639" type="curve" smooth="yes"/>
      <point x="302" y="680"/>
      <point x="288" y="715"/>
      <point x="288" y="764" type="curve" smooth="yes"/>
      <point x="288" y="822"/>
      <point x="322" y="868"/>
      <point x="401" y="868" type="curve" smooth="yes"/>
      <point x="463" y="868"/>
      <point x="507" y="848"/>
      <point x="538" y="838" type="curve" smooth="yes"/>
      <point x="556" y="832"/>
      <point x="579" y="823"/>
      <point x="585" y="851" type="curve" smooth="yes"/>
      <point x="603" y="934" type="line" smooth="yes"/>
      <point x="608" y="969"/>
      <point x="605" y="982"/>
      <point x="589" y="991" type="curve" smooth="yes"/>
      <point x="523" y="1027"/>
      <point x="435" y="1043"/>
      <point x="352" y="1043" type="curve" smooth="yes"/>
      <point x="267" y="1043"/>
      <point x="96" y="989"/>
      <point x="96" y="728" type="curve" smooth="yes"/>
      <point x="96" y="519"/>
      <point x="228" y="475"/>
      <point x="353" y="426" type="curve" smooth="yes"/>
      <point x="438" y="393"/>
      <point x="461" y="353"/>
      <point x="461" y="273" type="curve" smooth="yes"/>
      <point x="461" y="185"/>
      <point x="414" y="144"/>
      <point x="328" y="144" type="curve" smooth="yes"/>
      <point x="254" y="144"/>
      <point x="201" y="182"/>
      <point x="157" y="209" type="curve" smooth="yes"/>
      <point x="142" y="218"/>
      <point x="122" y="209"/>
      <point x="115" y="168" type="curve" smooth="yes"/>
      <point x="99" y="114" type="line" smooth="yes"/>
      <point x="93" y="80"/>
      <point x="99" y="72"/>
      <point x="111" y="59" type="curve" smooth="yes"/>
      <point x="181" y="-18"/>
      <point x="309" y="-31"/>
    </contour>
  </outline>
</glyph>
<glyph name="t" format="1">
  <advance width="671"/>
  <unicode hex="0074"/>
  <outline>
    <contour>
      <point x="435" y="-31" type="curve" smooth="yes"/>
      <point x="480" y="-31"/>
      <point x="522" y="-18"/>
      <point x="557" y="4" type="curve" smooth="yes"/>
      <point x="571" y="13"/>
      <point x="579" y="18"/>
      <point x="579" y="60" type="curve" smooth="yes"/>
      <point x="579" y="119" type="line" smooth="yes"/>
      <point x="579" y="160"/>
      <point x="568" y="182"/>
      <point x="554" y="177" type="curve" smooth="yes"/>
      <point x="525" y="166"/>
      <point x="500" y="152"/>
      <point x="471" y="152" type="curve" smooth="yes"/>
      <point x="426" y="152"/>
      <point x="384" y="170"/>
      <point x="384" y="308" type="curve" smooth="yes"/>
      <point x="384" y="789" type="line" smooth="yes"/>
      <point x="384" y="809"/>
      <point x="390" y="811"/>
      <point x="397" y="811" type="curve" smooth="yes"/>
      <point x="524" y="811" type="line" smooth="yes"/>
      <point x="538" y="811"/>
      <point x="550" y="825"/>
      <point x="550" y="868" type="curve" smooth="yes"/>
      <point x="550" y="949" type="line" smooth="yes"/>
      <point x="550" y="992"/>
      <point x="538" y="1006"/>
      <point x="524" y="1006" type="curve" smooth="yes"/>
      <point x="397" y="1006" type="line" smooth="yes"/>
      <point x="390" y="1006"/>
      <point x="384" y="1013"/>
      <point x="384" y="1033" type="curve" smooth="yes"/>
      <point x="384" y="1418" type="line" smooth="yes"/>
      <point x="384" y="1461"/>
      <point x="373" y="1475"/>
      <point x="358" y="1475" type="curve" smooth="yes"/>
      <point x="204" y="1475" type="line" smooth="yes"/>
      <point x="189" y="1475"/>
      <point x="178" y="1461"/>
      <point x="176" y="1418" type="curve" smooth="yes"/>
      <point x="166" y="1033" type="line"/>
      <point x="166" y="1013"/>
      <point x="161" y="1006"/>
      <point x="154" y="1006" type="curve" smooth="yes"/>
      <point x="111" y="1006" type="line" smooth="yes"/>
      <point x="97" y="1006"/>
      <point x="85" y="992"/>
      <point x="85" y="949" type="curve" smooth="yes"/>
      <point x="85" y="868" type="line" smooth="yes"/>
      <point x="85" y="825"/>
      <point x="97" y="811"/>
      <point x="111" y="811" type="curve" smooth="yes"/>
      <point x="154" y="811" type="line" smooth="yes"/>
      <point x="161" y="811"/>
      <point x="166" y="809"/>
      <point x="166" y="789" type="curve" smooth="yes"/>
      <point x="166" y="314" type="line" smooth="yes"/>
      <point x="166" y="-10"/>
      <point x="309" y="-31"/>
    </contour>
  </outline>
</glyph>
<glyph name="u" format="1">
  <advance width="816"/>
  <unicode hex="0075"/>
  <outline>
    <contour>
      <point x="689" y="1006" type="curve" smooth="yes"/>
      <point x="534" y="1006" type="line" smooth="yes"/>
      <point x="519" y="1006"/>
      <point x="507" y="1002"/>
      <point x="507" y="959" type="curve" smooth="yes"/>
      <point x="507" y="386" type="line" smooth="yes"/>
      <point x="507" y="253"/>
      <point x="475" y="144"/>
      <point x="408" y="144" type="curve" smooth="yes"/>
      <point x="344" y="144"/>
      <point x="311" y="207"/>
      <point x="311" y="338" type="curve" smooth="yes"/>
      <point x="311" y="959" type="line" smooth="yes"/>
      <point x="311" y="1002"/>
      <point x="299" y="1006"/>
      <point x="285" y="1006" type="curve" smooth="yes"/>
      <point x="121" y="1006" type="line" smooth="yes"/>
      <point x="105" y="1006"/>
      <point x="94" y="1002"/>
      <point x="94" y="959" type="curve" smooth="yes"/>
      <point x="94" y="351" type="line" smooth="yes"/>
      <point x="94" y="46"/>
      <point x="223" y="-31"/>
      <point x="353" y="-31" type="curve" smooth="yes"/>
      <point x="437" y="-31"/>
      <point x="533" y="38"/>
      <point x="566" y="171" type="curve" smooth="yes"/>
      <point x="568" y="178"/>
      <point x="570" y="182"/>
      <point x="573" y="182" type="curve" smooth="yes"/>
      <point x="575" y="182"/>
      <point x="579" y="177"/>
      <point x="581" y="169" type="curve" smooth="yes"/>
      <point x="611" y="44" type="line" smooth="yes"/>
      <point x="620" y="5"/>
      <point x="636" y="0"/>
      <point x="652" y="0" type="curve" smooth="yes"/>
      <point x="689" y="0" type="line" smooth="yes"/>
      <point x="704" y="0"/>
      <point x="716" y="14"/>
      <point x="716" y="57" type="curve" smooth="yes"/>
      <point x="716" y="959" type="line" smooth="yes"/>
      <point x="716" y="1002"/>
      <point x="704" y="1006"/>
    </contour>
  </outline>
</glyph>
<glyph name="v" format="1">
  <advance width="776"/>
  <unicode hex="0076"/>
  <outline>
    <contour>
      <point x="283" y="0" type="curve" smooth="yes"/>
      <point x="482" y="0" type="line" smooth="yes"/>
      <point x="498" y="0"/>
      <point x="513" y="27"/>
      <point x="520" y="67" type="curve" smooth="yes"/>
      <point x="686" y="945" type="line" smooth="yes"/>
      <point x="687" y="952"/>
      <point x="689" y="960"/>
      <point x="689" y="967" type="curve" smooth="yes"/>
      <point x="689" y="990"/>
      <point x="682" y="1006"/>
      <point x="673" y="1006" type="curve" smooth="yes"/>
      <point x="523" y="1006" type="line" smooth="yes"/>
      <point x="507" y="1006"/>
      <point x="491" y="990"/>
      <point x="485" y="949" type="curve" smooth="yes"/>
      <point x="403" y="342" type="line" smooth="yes"/>
      <point x="402" y="335"/>
      <point x="400" y="332"/>
      <point x="398" y="332" type="curve" smooth="yes"/>
      <point x="396" y="332"/>
      <point x="394" y="335"/>
      <point x="392" y="342" type="curve"/>
      <point x="311" y="949" type="line" smooth="yes"/>
      <point x="304" y="990"/>
      <point x="290" y="1006"/>
      <point x="274" y="1006" type="curve" smooth="yes"/>
      <point x="98" y="1006" type="line" smooth="yes"/>
      <point x="89" y="1006"/>
      <point x="82" y="990"/>
      <point x="82" y="966" type="curve" smooth="yes"/>
      <point x="82" y="958"/>
      <point x="82" y="951"/>
      <point x="84" y="944" type="curve"/>
      <point x="244" y="68" type="line" smooth="yes"/>
      <point x="252" y="27"/>
      <point x="267" y="0"/>
    </contour>
  </outline>
</glyph>
<glyph name="w" format="1">
  <advance width="1017"/>
  <unicode hex="0077"/>
  <outline>
    <contour>
      <point x="231" y="0" type="curve" smooth="yes"/>
      <point x="431" y="0" type="line" smooth="yes"/>
      <point x="446" y="0"/>
      <point x="460" y="31"/>
      <point x="464" y="74" type="curve" smooth="yes"/>
      <point x="498" y="427" type="line"/>
      <point x="499" y="432"/>
      <point x="501" y="435"/>
      <point x="502" y="435" type="curve" smooth="yes"/>
      <point x="504" y="435"/>
      <point x="505" y="432"/>
      <point x="505" y="427" type="curve"/>
      <point x="538" y="74" type="line" smooth="yes"/>
      <point x="542" y="31"/>
      <point x="556" y="0"/>
      <point x="571" y="0" type="curve" smooth="yes"/>
      <point x="770" y="0" type="line" smooth="yes"/>
      <point x="786" y="0"/>
      <point x="800" y="29"/>
      <point x="806" y="71" type="curve" smooth="yes"/>
      <point x="927" y="935" type="line" smooth="yes"/>
      <point x="928" y="942"/>
      <point x="928" y="948"/>
      <point x="928" y="955" type="curve" smooth="yes"/>
      <point x="928" y="982"/>
      <point x="921" y="1006"/>
      <point x="910" y="1006" type="curve" smooth="yes"/>
      <point x="766" y="1006" type="line" smooth="yes"/>
      <point x="751" y="1006"/>
      <point x="737" y="975"/>
      <point x="734" y="932" type="curve" smooth="yes"/>
      <point x="689" y="433" type="line"/>
      <point x="689" y="428"/>
      <point x="688" y="425"/>
      <point x="687" y="425" type="curve" smooth="yes"/>
      <point x="685" y="425"/>
      <point x="683" y="427"/>
      <point x="683" y="432" type="curve"/>
      <point x="631" y="933" type="line" smooth="yes"/>
      <point x="627" y="976"/>
      <point x="612" y="1006"/>
      <point x="598" y="1006" type="curve" smooth="yes"/>
      <point x="436" y="1006" type="line" smooth="yes"/>
      <point x="421" y="1006"/>
      <point x="406" y="976"/>
      <point x="402" y="933" type="curve" smooth="yes"/>
      <point x="350" y="432" type="line"/>
      <point x="350" y="428"/>
      <point x="348" y="425"/>
      <point x="346" y="425" type="curve"/>
      <point x="346" y="425"/>
      <point x="344" y="428"/>
      <point x="343" y="433" type="curve"/>
      <point x="304" y="931" type="line" smooth="yes"/>
      <point x="300" y="975"/>
      <point x="287" y="1006"/>
      <point x="271" y="1006" type="curve" smooth="yes"/>
      <point x="103" y="1006" type="line" smooth="yes"/>
      <point x="92" y="1006"/>
      <point x="85" y="981"/>
      <point x="85" y="953" type="curve" smooth="yes"/>
      <point x="85" y="947"/>
      <point x="85" y="940"/>
      <point x="86" y="934" type="curve" smooth="yes"/>
      <point x="196" y="72" type="line" smooth="yes"/>
      <point x="201" y="29"/>
      <point x="216" y="0"/>
    </contour>
  </outline>
</glyph>
<glyph name="y" format="1">
  <advance width="740"/>
  <unicode hex="0079"/>
  <outline>
    <contour>
      <point x="265" y="-694" type="curve" smooth="yes"/>
      <point x="373" y="-694"/>
      <point x="422" y="-541"/>
      <point x="463" y="-279" type="curve" smooth="yes"/>
      <point x="651" y="936" type="line" smooth="yes"/>
      <point x="652" y="943"/>
      <point x="652" y="950"/>
      <point x="652" y="957" type="curve" smooth="yes"/>
      <point x="652" y="983"/>
      <point x="646" y="1006"/>
      <point x="636" y="1006" type="curve" smooth="yes"/>
      <point x="506" y="1006" type="line" smooth="yes"/>
      <point x="490" y="1006"/>
      <point x="476" y="977"/>
      <point x="471" y="934" type="curve" smooth="yes"/>
      <point x="407" y="422" type="line"/>
      <point x="407" y="415"/>
      <point x="405" y="411"/>
      <point x="403" y="411" type="curve" smooth="yes"/>
      <point x="401" y="411"/>
      <point x="399" y="414"/>
      <point x="398" y="420" type="curve" smooth="yes"/>
      <point x="311" y="937" type="line" smooth="yes"/>
      <point x="304" y="979"/>
      <point x="288" y="1006"/>
      <point x="272" y="1006" type="curve" smooth="yes"/>
      <point x="96" y="1006" type="line" smooth="yes"/>
      <point x="88" y="1006"/>
      <point x="81" y="985"/>
      <point x="81" y="962" type="curve" smooth="yes"/>
      <point x="81" y="955"/>
      <point x="82" y="947"/>
      <point x="83" y="940" type="curve"/>
      <point x="302" y="-135" type="line" smooth="yes"/>
      <point x="309" y="-174"/>
      <point x="323" y="-237"/>
      <point x="323" y="-268" type="curve" smooth="yes"/>
      <point x="323" y="-378"/>
      <point x="288" y="-387"/>
      <point x="270" y="-387" type="curve" smooth="yes"/>
      <point x="262" y="-387" type="line" smooth="yes"/>
      <point x="252" y="-387"/>
      <point x="218" y="-378"/>
      <point x="200" y="-361" type="curve" smooth="yes"/>
      <point x="198" y="-359"/>
      <point x="196" y="-357"/>
      <point x="193" y="-357" type="curve" smooth="yes"/>
      <point x="185" y="-357"/>
      <point x="176" y="-369"/>
      <point x="172" y="-392" type="curve" smooth="yes"/>
      <point x="152" y="-531" type="line" smooth="yes"/>
      <point x="150" y="-543"/>
      <point x="149" y="-555"/>
      <point x="149" y="-567" type="curve" smooth="yes"/>
      <point x="149" y="-596"/>
      <point x="153" y="-621"/>
      <point x="160" y="-632" type="curve" smooth="yes"/>
      <point x="188" y="-676"/>
      <point x="225" y="-694"/>
    </contour>
  </outline>
</glyph>
<glyph name="z" format="1">
  <advance width="676"/>
  <unicode hex="007A"/>
  <outline>
    <contour>
      <point x="112" y="0" type="curve" smooth="yes"/>
      <point x="563" y="0" type="line" smooth="yes"/>
      <point x="569" y="0"/>
      <point x="576" y="10"/>
      <point x="576" y="30" type="curve" smooth="yes"/>
      <point x="576" y="167" type="line" smooth="yes"/>
      <point x="576" y="187"/>
      <point x="569" y="200"/>
      <point x="563" y="198" type="curve" smooth="yes"/>
      <point x="346" y="198" type="line"/>
      <point x="556" y="737" type="line" smooth="yes"/>
      <point x="562" y="752"/>
      <point x="566" y="766"/>
      <point x="566" y="789" type="curve" smooth="yes"/>
      <point x="566" y="975" type="line" smooth="yes"/>
      <point x="566" y="995"/>
      <point x="560" y="1006"/>
      <point x="554" y="1006" type="curve" smooth="yes"/>
      <point x="112" y="1006" type="line" smooth="yes"/>
      <point x="106" y="1006"/>
      <point x="100" y="995"/>
      <point x="100" y="975" type="curve" smooth="yes"/>
      <point x="100" y="834" type="line" smooth="yes"/>
      <point x="100" y="814"/>
      <point x="106" y="804"/>
      <point x="112" y="806" type="curve" smooth="yes"/>
      <point x="331" y="806" type="line"/>
      <point x="108" y="247" type="line" smooth="yes"/>
      <point x="102" y="233"/>
      <point x="98" y="216"/>
      <point x="98" y="193" type="curve" smooth="yes"/>
      <point x="98" y="30" type="line" smooth="yes"/>
      <point x="98" y="10"/>
      <point x="105" y="0"/>
    </contour>
  </outline>
</glyph>
<glyph name="hungarumlaut" format="1">
  <advance width="599"/>
  <unicode hex="02DD"/>
  <outline>
    <contour>
      <point x="176" y="1171" type="curve" smooth="yes"/>
      <point x="189" y="1171"/>
      <point x="194" y="1171"/>
      <point x="213" y="1171" type="curve" smooth="yes"/>
      <point x="227" y="1171"/>
      <point x="229" y="1193"/>
      <point x="232" y="1210" type="curve" smooth="yes"/>
      <point x="309" y="1557" type="line" smooth="yes"/>
      <point x="311" y="1569"/>
      <point x="313" y="1583"/>
      <point x="313" y="1594" type="curve" smooth="yes"/>
      <point x="313" y="1610"/>
      <point x="310" y="1622"/>
      <point x="304" y="1622" type="curve" smooth="yes"/>
      <point x="209" y="1622" type="line" smooth="yes"/>
      <point x="194" y="1622"/>
      <point x="186" y="1610"/>
      <point x="183" y="1567" type="curve" smooth="yes"/>
      <point x="163" y="1238" type="line" smooth="yes"/>
      <point x="162" y="1224"/>
      <point x="161" y="1212"/>
      <point x="161" y="1203" type="curve" smooth="yes"/>
      <point x="161" y="1176"/>
      <point x="166" y="1171"/>
    </contour>
    <contour>
      <point x="353" y="1171" type="curve" smooth="yes"/>
      <point x="366" y="1171"/>
      <point x="371" y="1171"/>
      <point x="391" y="1171" type="curve" smooth="yes"/>
      <point x="403" y="1171"/>
      <point x="406" y="1193"/>
      <point x="410" y="1210" type="curve" smooth="yes"/>
      <point x="486" y="1557" type="line" smooth="yes"/>
      <point x="488" y="1569"/>
      <point x="491" y="1583"/>
      <point x="491" y="1594" type="curve" smooth="yes"/>
      <point x="491" y="1610"/>
      <point x="487" y="1622"/>
      <point x="480" y="1622" type="curve" smooth="yes"/>
      <point x="386" y="1622" type="line" smooth="yes"/>
      <point x="371" y="1622"/>
      <point x="364" y="1610"/>
      <point x="361" y="1567" type="curve" smooth="yes"/>
      <point x="340" y="1238" type="line" smooth="yes"/>
      <point x="339" y="1224"/>
      <point x="339" y="1212"/>
      <point x="339" y="1203" type="curve" smooth="yes"/>
      <point x="339" y="1176"/>
      <point x="343" y="1171"/>
    </contour>
  </outline>
</glyph>
